<mxfile host="app.diagrams.net" modified="2023-08-08T02:57:14.920Z" agent="Mozilla/5.0 (Windows NT 10.0; Win64; x64) AppleWebKit/537.36 (KHTML, like Gecko) Chrome/115.0.0.0 Safari/537.36" etag="2_YZVZcgZBjiF0dE5q7f" version="21.6.6" type="device">
  <diagram name="Page-1" id="R5ecprR-YXO9Gjul0s2y">
    <mxGraphModel dx="1750" dy="903" grid="0" gridSize="10" guides="1" tooltips="1" connect="1" arrows="1" fold="1" page="1" pageScale="1" pageWidth="1700" pageHeight="1100" math="0" shadow="0">
      <root>
        <mxCell id="0" />
        <mxCell id="1" parent="0" />
        <mxCell id="e2_BesBo26gISKYNJ_wk-1" value="" style="shape=image;verticalLabelPosition=bottom;labelBackgroundColor=default;verticalAlign=top;aspect=fixed;imageAspect=0;image=data:image/png,iVBORw0KGgoAAAANSUhEUgAAA/gAAAM2CAYAAABCOShTAAAAAXNSR0IArs4c6QAAAARnQU1BAACxjwv8YQUAAAAJcEhZcwAADsMAAA7DAcdvqGQAAKGmSURBVHhe7P0HdGTXfedx/ipXoZBz58xmaOYgihRJibYkSrboseQJ9qx3j8eyLNuakefYZ+SxjiTLYUbyjmc16+P1jOfYkoMkK1mJonJizqnZOTfQyBmV47778IoEQXQ3UgH1Xn0/5Ouq+r9qNNkACu9X997/9ZUtAgAAAAAAruZ3bgEAAAAAgIsR8AEAAAAA8AACPgAAAAAAHkDABwAAAADAAwj4AAAAAAB4AAEfAAAAAAAPIOADAAAAAOABBHwAAAAAADyAgA8AAAAAgAcQ8AEAAAAA8AACPgAAAAAAHkDABwAAAADAAwj4AAAAAAB4AAEfAAAAAAAPIOADAAAAAOABBHwAAAAAADyAgA8AAAAAgAcQ8AEAAAAA8AACPgAAAAAAHkDABwAAAADAAwj4AAAAAAB4AAEfAAAAAAAPIOADAAAAAOABBHwAAAAAADyAgA8AAAAAgAcQ8AEAAAAA8AACPgAAAAAAHkDABwAAAADAAwj4AAAAAAB4AAEfAAAAAAAPIOADAAAAAOABBHwAAAAAADyAgA8AAAAAgAcQ8AEAAAAA8AACPgAAAAAAHkDABwAAAADAAwj4AAAAAAB4AAEfAAAAAAAPIOADAAAAAOABBHwAAAAAADyAgA8AAAAAgAf4yhbnPgAAAACs2PnRAX3xkQedR6hlXS3t+rmb36xO6xbeQcAHAAAAsCZMwP/Mo19X99U7nApqUT6dVWi6oF+6/mcI+B5DwAcAAACwJkzA//vHv6FN1+9xKqhFOSvgB8Yyes+19xLwPYY1+AAAAAAAeAABHwAAAAAADyDgAwAAAADgAQR8AAAAAAA8gIAPAAAAAIAHEPABAAAAAPAAAj4AAAAAAB5AwAcAAAAAwAMI+AAAAAAAeAABHwAAAAAADyDgAwAAAADgAQR8AAAAAAA8gIAPAAAAAIAHEPABAAAAAPAAAj4AAAAAAB5AwAcAAAAAwAMI+AAAAAAAeAABHwAAAAAADyDgAwAAAADgAQR8AAAAAAA8gIAPAAAAAIAHEPABAAAAAPAAAj4AAAAAAB5AwAcAAAAAwAMI+AAAAAAAeAABHwAAAAAADyDgAwAAAADgAQR8AAAAAAA8wFe2OPcBAACAulUqlTQ2NmbfYvkymYzK0YD+6alvadP1e5wqalEunVVgLKP3XHuvOlvanSq8gIAPAAAAWMbHx3XkyBHl83mnguUoFAraedVe/fNz3yXg1zgCvncR8AEAAABLMpm0Q35lBD+VSikWi8nn89mPcXmM4LsDAd+7CPgAAADAIv72b/9Wb3zjG7V//34FAgGniks5Pzqgv3/8GwT8GkfA9y6a7AEAAACLOHTokCYnJ8V4GAC3IOADAAAAi8jlcozcA3AVAj4AAACwCNM0LhgMsgYfgGsQ8AEAAIBFmIDPCD4ANyHgAwAAAIsw2+WZEXwAcAsCPgAAALAIE/DNCD5T9AG4BQEfAAAAWEQl4AOAWxDwAQAAgEWwBh+A2xDwAQAAgEVU1uAzRR+AWxDwAQAAgEUwRR+A2xDwAQAAgEUwRR+A2xDwAQAAgEUwRR+A2xDwAQAAgEUwRR+A2xDwAQAAgEWYKfp+P5fLANyDVywAAABgEeVy2bkHAO5AwAcAAAAWwfR8AG5DwAcAAAAWYRrsAYCbEPABAACARdBBH4DbEPABAACARTCCD8BtCPgAAADAIliD7065VEZ9B09o+MR5pwLUDwI+AAAAsAim6LtPsVBUYmJG2WRGWSvoJydnnDNAfSDgAwAAAItgir775DNZJcan1LljkxramjV5YUTlEtsdon4Q8AEAAIBFEPDdJZ/NaWZ4QpHGmJp72tXU0SJ/IKCpwVHnGYD3EfABAACARTBF3z1KxZJSk7NKTc2qfXO3/H6/wrGomrvaND0yoWwi5TwT8DYCPgAAALAIRvDdw4zez45Pq2VTp0LRsF3z+X2KNDWooblRkwOM4qM+EPABAACARRDw3aGQy2t2dFL+gF8tPR1Wsn911kUoHFJTd5v1nIJmrOcAXkfABwAAABbBFP3aVy6XlU2klRibUtumTjvkv4b1+YvEooq3N2v8/JD9ZgDgZQR8AAAAYBGM4Ne+QiZnj8w3drQo2hx3qq/lDwYUb2tSrKlBU0zVh8cR8AEAAIAFSqWSAoGA8wi1aG7P+2l7VL59W88lZ1uEohG7s35qJmE34gO8ioAPAAAALFAoFOyAzxT92mX2vJ8dm1Lrpg57O7xLMZ/HSENMDS3NmjB745fZGx/eRMAHAAAAFqgEfNSmgtnzfmRS4XhMje0tTvXSAsHg3N74fr+mB8ecKuAtBHwAAABggXw+zxr8GmX2vE9OJZScmFH75i75rMC+JD4p3BBRU2erpobGlU2mnROAdxDwAQAAgAUI+LXL7HmfGDdT8zsVjkWc6tKYNwOiTXE1tLA3PryJgA8AAAAswBr82lTMF+wt8cz2dy29r93zfqlCkZCautpUyOY1Yz4W4CEEfAAAAGABM4LPGvzaYhrjZRJpu7HeonveL5XdcC9qb503cX5IRetzDXgFAR8AAABYgIBfe+zGembP+/ZmxZobnerKzO2N36xIPKbJARruwTsI+AAAAMACZoq+WYPPFP3aULL3vJ+xt8Zr29Ijn3/1n5dQLKIWszf+5KxSUwmnCrgbAR8AAABYgBH82pLL5Ob2vO/tVCC0Np8X8+ZN2OyN39akyYERpwq4m69sFrMAAAAAeMULL7yg733ve/rABz6ghoYGp4rLuTA2pM9+/6sKhNd2B4L0bEoDZ8+rsbV56dviLYUVhfK5vN28b9sVu+pmxoaJgJ2NbfqFO9+mtqYWpwovIOADAAAACzz99NN6+OGH9Vu/9VuKxWJOFZczk5x17q0tE1nMsgm/b+0nIJetf8y/wVB9bYvo9wcUi0QVWMs3TLDhCPgAAADAAo8//rieeuopve997yPgA3AN3q4BAAAAFmANPgA3IuADAAAAC5iATxd9AG5DwAcAAAAWMOu9GcEH4DYEfAAAAGCByj74AOAmBHwAAABggcoafKboA3ATAj4AAACwAE32ALgRAR8AAABYoNJkDwDchIAPAAAALFBpsscUfQBuQsAHAAAAFmCKPgA3IuADAAAACxDwAbgRAR8AAABYgDX4ANyIgA8AAAAswBp8AG5EwAcAAAAWqAR8AHATAj4AAACwAFP0AbgRAR8AAABYoNJkjyn6ANyEgA8AAAAsQBd9AG5EwAcAAAAWMGvwmaIPwG0I+AAAAMACTNEH4EYEfAAAAGABpugDcCMCPgAAALAAU/QBuBEBHwAAAFiAKfoA3IiADwAAACzAFH0AbkTABwAAABZgij4ANyLgAwAAAAuYgM8UfQBuQ8AHAAAAFmCKPgA3IuADAAAACzBFH4AbEfABAACABZiiD8CNCPgAAADAApWADwBuQsAHAAAAFjAB3+/nUhmAu/jKFuc+AAAAAMs999yjr3/962ptbXUqWIqSFS0+8k//03mEWmaWn/z2O/69Nnf0OBV4AQEfAAAAWODOO+/UAw88oLa2NqeCpTAB/6Of+5R2vumAU0GtGjx6Vr9+y/0EfI9h3hEAAACwQKlUcu4BgHsQ8AEAAIAFWH8PwI145QIAAAAWMHvgs0UeALch4AMAAAALsEUeADci4AMAAAALmBF8AHAbAj4AAACwgBnBZ4o+ALch4AMAAAALhEIh5x4AuAcBHwAAAFiAKfoA3IiADwAAACxAF30AbkTABwAAABZgBB+AGxHwAQAAgAUI+ADciIAPAAAALMAUfQBuRMAHAAAAFqCLPgA3IuADAAAACzBFH4AbEfABAACAecrlsj2CzxR9AG5DwAcAAADmKRaLCgQCziMAcA8CPgAAADBPoVBgij4AVyLgAwAAAPPk83m66ANwJQI+AAAAMI8J+EzRB+BGBHwAAABgHqboA3ArAj4AAAAwT2UEnyn6ANyGgA8AAADMwxR9AG5FwAcAAADmMVP0CfgA3IiADwAAAMyTy+Xoog/AlQj4AAAAwDyM4ANwKwI+AAAAMA8BH4BbEfABAACAeUyTPaboA3AjAj4AAAAwD130AbgVAR8AAACYh4APwK0I+AAAAMA8Zg0+U/QBuBEBHwAAAJiHEXwAbuUrW5z7AAAAQN3JZDIqlUrOI+mBBx5QNpvVz//8zysSiThVLEXJihZ/9qX/n3a/+XpmQNS4waNn9eu33K/NHT1OBV5AwAcAAEDdyuVyOnXqlFKplFORfvKTn8hcIr/pTW9SKBRyqlgKE/D//qGv6cDP36FghL+7WkbA9yYCPgAAAOrW1NSUTp48qXQ67VTmAn44HNZtt91mr8XH0plg8YUnv61r77/TCvjhuSJqEgHfmwj4AAAAwDz/+I//qLa2Nr3tbW+zgz6Wzozgf/Rzn9LONx1wKqhVBHxvoskeAAAAMI/pok+TPQBuRMAHAAAA5ql00adJHAC3IeADAAAA8zCCD8CtCPgAAADAPGYEn+Z6ANyIgA8AAADMwxR9AG5FwAcAAADmqQR8AHAbAj4AAAAwj1mDzxR9AG5EwAcAAADmqTTZY4o+ALch4AMAAADz5HI5pugDcCUCPgAAADAPU/QBuBUBHwAAAJiHKfoA3IqADwAAAMxTCfgA4DYEfAAAAGAepugDcCsCPgAAADAPU/QBuBUBHwAAAJiHKfoA3IqADwAAAMzDFH0AbkXABwAAAOapBHym6ANwGwI+AAAAMA9T9F2uLJ197ohOP33IKQD1g4APAAAAzGMCPqP37jUzNql8JqdyqaypwTGnCtQHAj4AAAAwjwn4cKlyWcMn+tSzd7t1bNPwqX4r6Jeck4D3EfABAK5Tti7gKkfJunAzR7FojqIKrztKKzhe+zHMxzUfv/Jnzf/zAXiPCfh8f7vT8OkLirXE1dzdpsaOFjVZx5AV+IF64bNevHj1AgDUrLkgbZZUzgVqE7aTyZR1JJVKpTWbTGsykdK0dSRSGSXTOeWsMK5ASGV/UGVfwDnMe9p+69ZMu50/9dZ88LJVKc0dVoD3lQrWD8iifev3lRWPhtXYEFVLY0yt8Zh9G4/HFW9oUIN1hMMh60P67I9amdbL9F7Avd761rfqS1/6klpbW50KlqpkvZ5+9HOf0s43HXAq6yczk9SpZ4/oijdep5D1um0U83mdePygtl+3Tw2tTXYNcwaPntWv33K/Nnf0OBV4AQEfAFAz7DDv3JasIJ+wgvz09LSmZ2Z1YWxaIxMzmkqkVQrGVAxFVfDH5AtGFYxEFAxHFQpFFAiH5fevXXMse3ZAPqdCPqtCzhwZFa0jWLKOYkaBYlaNkYC62pvVax1dbS1qbm5WU2Oj3aTL5HwT9gn8gHu85S1v0Ve/+lUC/gpsWMC3fnicfeGomjpa1bG91ynOmbwwqsnBUe2+5WqnAoOA700EfADAhrEDvT2AXranxE5MTmp0fELnh8Y1YAX6RMGnQqhRxWBc4YYmRWKNCkWtUF9DYdn+b7eCfzadUN46fNmEgvmkQuWMtnS2antvu3o629VmBYVYzPy3E/iBWnfXXXfpG9/4htra2pwKlmqjAv7khRFNDo1p982LhHjr58y5F47ZU/YXhv96RsD3JgI+AGBdzYV6E+iLmpya0tDIqE5dGFX/6JRywSYVwk0Kxa0w3NisYCji/C73KZUKSs/OKJuYUiA7rUgppZ7mqHZv7daWni61t7cpHAoR9oEadPfdd9sBnxH85duIgF/M5XX8iZe047orLjoN356+/8wRXXHHq9P36x0B35sI+ACAqquE+lw+r6HhEZ3tH9TJCxOazvtViFpBt7FNsaZW+QNB53d4j+ninE7OWBeZEwpmJ9VgBf7dW7q0b3uvujs71RBvkJ+wD9SEe++9V//yL/9CwF+BjQj4A0fOyBfwa9MVO5zK4kZO9SuXyWrrNXucSn0j4HsTXfQBAFVhAr1Zv57JZnXmXJ9+8MhT+tuv/EBffvyUnhyLKdtzvZr23qa2rfsUb+30dLg3fH6/Gppa1b5lt5p33yz/ztv1crJFX366X3//wEN68EeP6dTpM0okkq906gewMYJBb78eeUlifFqz1tG7d5tTubju3VuUnklqZmTCqQDeQ8AHAKwpe6Q+NzdS/9jTz+sfvv4j/cuTp/XCTJN8O25R864b1Na7zV5LX8/8wZCaOzepbecBBXfephOFLn3l2QH9wwM/1fcfeUp9/ReUzeUI+8AGmGuQyWyamme9Ng6fNHveb7XfRL0s63Na2Rsf8CoCPgBg1Sqj9WbbusPHTuir339En/vRi3pkMKB87w12qG/t3uLqNfXVZGYvNLb32GHft/02HZxt0hcfO6F/+voP9NxLh+1eBQR9YP2EQiHnHmrZ6NlBhWJhtfZ2OpXLa+5sU6w5br8xAHgRAR8AsGImcOYLBY2NT+jxZ57XZ77xY3375TENhnfY0+/bN++s+5H65QoEg2ru2qKmnTco1XWdvn8ypc9/70l7VH9waFjFIkEfqDYzgo/alk2m7ZH4nr3bncoS+aSePVs13jek9GzSKQLeQcAHACybCZhmGn7/wJB+8MjT+odvP65HBvwqb7lRzduvVkNLu/NMrJSZHhxpaFTH9ivk33aLDs406osPHda/fPenOne+z35jhaAPVIdZg88U/RpmvfTZ4d4K6pGGqFNculA0MjdVn1F8eBABHwCwZJVgf75/QN956El98acv6WCiWfF9d6ht8y6FIozWV4M9qt+9VdHt16s/sEVffuK0vvitH+v0mbP2zgQEfWBtMUW/tk0Njyufyalr12ansnwdW3tVLpY0cWHEqQDeQMAHAFyWHeytINl3YVDffegpffnhQzqW61DT3jfYa+v9S2luhFXzBwKKt3Wracd1Govv0VefOW8H/TNnz6lQLBL0gTVCF/3aVbZe6+zGenu2OpUVMlP19263Pla/ivmCUwTcjysyAMAlFQoFDY+O6UePPqMvP3RQR7Nt9vr6ls5NzjOw3ky36Fhzu5q2X6txE/SfPqevfOcnduf9Is34gFVjin7tMlPzmzpa1Ggdq9XQ2qi2TZ0aYqo+PISAj8tKpVLKZrPOIwD1wnRtn51N6IlnX9Rnv/ukXpxpVHzPrWrpWvmUSKwtO+i3dCi+7YAGgtv01SdO6Ns/flwjo6P25w/AyjCCX5tSk7OaHBq318+vFTMTwOylbw7ACwj4uKTh4WF99KMf1WOPPaZkkk6jQD0wo7/pTEYvHzmuz33nUT0+WFZs92323vU+Hz82alFl6n54y7U6lm7Wvzz0kp547qBmEwlG84EVIODXILuxXp96rUAeCK3d58cX8Kt37zYNWR8b8AKf9YOfn/y4pPe97312s5l3vetduuuuuxSPx50zALwmny9ocGRUT718UudnpEDHDsUam52zcItCPqeZwdPq0oTecvNV2rFjh/w+H1OOgSX64Ac/qD/7sz9TY2OjU8FSmWjxJ//0/3UerZ1Ssajjzx5SW0+HU1lbU+OT2nf91fJbgb9emJ8Jv/HOX1Zve5dTgRcQ8HFZv/u7v6vf//3f13//7/+dkA94lPlRkEqndfDwcT16ZECljl2ssXe5crmkbGJG5Ynz2tcZ1Buuu1Lt7W2EfGAJzHXPH/3RHxHwAbgOcy2xJFu3btV//a//Vd/85jf18MMPM10f8JB8Pq8z5/v1tR8+pUfP5xTbfTPh3gPMcopoU6vCW67SoZmYvvrjp3XsxEma8AGXYfpXBAIB5xEAuAsBH0tGyAe8xR61T6X07IuH9LVHD2kotFlNW69QMBRxngEvCARDau7dqWzXNfr2S0P69k+e0OTkFCEfuAjzpidd9AG4FQEfy0LIB7zBbH03MDSibz30jB49n1F0x41qau92zsJrTFAJxRoV3XyljszG9NUfPakzZ8/SaR9YhHl9pMkeALci4GPZCPmAu2WyWR06dlJf/vGzOlPsUNPWKxm1rxNzo/k7lGq7Ug8+d16PPv2iUqk0o/nAPJURfABwIwI+VoSQD7iPCXEJ63v18ede1o8ODcm36Vq1dm1xzqJemLX5kaZW+Xuu1GN9WT3w4yc0OjpGyAccTNEH4GYEfKwYIR9wj2KxqIFhMyX/OT03XFbD9usUjTc5Z1GPguGIWrbsVX+5U998+DmdPXtOpRIhHzBT9GmyB8CtCPhYFUI+UPtyuZyOnz6rbzz0gs4V29W0ea98fl7+YV0EBIKKd21Ruu0Kffv5s3r2pcP2m0FAPWMEH4CbcYWHVSPkA7Urk8no4NET+vZTJ5Rp26fWbqbk47XMlP1wY5vUfaUeOTWlHz76jL2Ugyn7qFeswQfgZgR8rAlCPlB7ksmUnn7xsB46NqbItusUb2l3zgCvFwxHFendpxfHfXrwp09pYmKSkI+6RBd9AG5GwMeaIeQDtcGEsunZhH7y9Et6eiCv2LYDCkUbnLPAxQVDYTX27NL5Qpu+8ZOnNDQ0TMhH3WGKPgA3I+BjTRHygY1l9jUfm5jUdx99XkemrbC2Zb/8fppFYenMVnqNXds0Hd+hBx8/qPN9fYR81BVG8AG4GQEfa46QD2wMu1P+0IgefPRFnc21qHnTbucMsDz+QECx1h6lmnfre8+c1KnTZwj5qBumMamfRqQAXIpXL1QFIR9YX2bEqW9gSN954mUN+7vV2rvdOQOsjNlpIdzUrlzbXv3wpT4dPnZCJUI+6kBlBJ8p+gDciICPqpkf8n/4wx9qamqKESCgCszF6Ln+ASvcH9ZUdCud8rFmTMAJxZtV7Nirh44O6+DhY+yVD88zr6nsgw/ArQj4qKpKyP/bv/1bfeUrX9Hk5KSOHDninAWwWnnrQvTM+Qv67lNHlWzaoebOXucMsHaC0bjUuVePHh/Vi4eOEPLhaabJHgEfgFsR8FF1JuT/8R//sb72ta/pq1/9qh588EHnDIDVMKNMZ61w/72njyrTsktN7d3OGWDtBcIx+br26rET43rBhHxmZMGj6KIPwM0I+FgX119/vf70T/9Ux46Z6Z0lpwpgpexw3zegHzxzTNnW3Wps63LOANVjQr6/e6+eODWul8x0fUI+PIgRfABuRsDHujEh/8Mf/rBCoZBTAbAShWLRbqj3g2eOKtW8k3CPdWWP5Hfu1eMnxnToyDF6q8BzKk32AMCNCPgA4CJmK7zBoVH98JljSsS3Lzot3w5chC5UkQn56tytx46P6PiJk4R8eAoj+ADcjIAPAC5hQtTYxJR+9OxRTYR7F22ol89lNNp3SsnpCUI+qioQiqnYtksPHbqgM2fPEvLhGZWAzxp8AG5EwAcAl5ieSeih545qWO0X3QovEAgqGA5r4NTLSk6NE/JRPVb4CUQblW3eoR+9cFr9/RcI+fAEtskD4GYEfABwgZnZpB55/ojOpmNq7d3uVF/PbwX81q7N6tyySwNnDisxNUbIR9VU9slPxbfqB88c0cjoqHMGcK9KF30AcCMCPgDUuFQqrRcOn9CxybJaNu92qhdnQn6LE/KHTh8h5KOqfP6Awk0dmgr36vuPv6CpqWnnDOBOTNEH4GYEfACoYZlsVkdOntGzfTOKb9rrVC/PDvmdm9S5dbeGzhzV7OQoIR9VY77eom29GvF36aFnX1Y2m3POAO7DFH0AbkbAB4AaZUaRTp/r18OH+hXq2iu/f3kXnCZ0NZuQv2W3Rs4eI+SjqgLBkBXyN+vkTEhPvXiI9fhwLbbJA+BmBHwAqEGlUklDI+N66MXTKnfuVTjW4JxZHn8gYHfbNyP5w+eOaWZihJCPqgmGI4p1bdPLg2kdOX6CkA9XqgR8pugDcCMCPgDUoOnZpB47eFIz0c2Kt7Q71ZUxIb+po1ddW/Zo9PwJQj6qyt4jv227Hjs6oAsXBpwq4B5M0QfgZgR8AKgxyVRKLxw5of5MVK09i2+Ht1x2yO/sUedWE/JPamZ8mJCPqvFZIT8Z7dEPn3pZU9M03YO7EPABuBkBHwBqSC6X08kzfXqxP6F47+U75i+HWcPf1NGtrm27Ndp/ygr5Q4R8VIX5Wgs3dWoi3K3HXzhiLzkB3KIS8JmiD8CNCPgAUCOKVggaHBnTwy+flb9jpxWS1v4l2gSvxnYr5G/do7H+M3bIZ500qsE03Yu0btLJKemlw8f4OoNrMIIPwM0I+ABQI2YTST156IxS8a2Kxpud6tqzR/Lbu9S5zQr5F6yQP0bIRxVYX1PBcFSh9m169tSwBgcHnRNAbas02QMANyLgA0ANyGQyOnryrPpSIbV2r826+0vxmZDf1qWurXs1MWBC/iAhH2umkM/Zs0Oy6aQUjCoR6dZPnzuiVCrtPAOoXUzRB+BmBHwA2GDmYvL8wLCeODaoWPcOp1p9Pr9fjW2d6ty2V+MD5zQ9OkDIx6rlsxmN9Z3UxGCfSsWi3eAx1NShoWKLXjh8nK8x1DxG8AG4GQEfADbYbDKlp4+cU7F1h4KhiFNdH3bIb+1U1/a9mhg6T8jHKpSVy6Q0fO6Yilaw33rlDYo1zi01MV/XsfbNOjwwo/4LF+waUKtYgw/AzQj4ALCB0s7U/KFcVE0dPU51fdkhv6VD3dv2aXKoT9MjFwj5WJZyqaTU9KQGTx1WJBrXln3XWqE+7Jx1WCE/FenSw88fVSrNVH3UrsoIPlP0AbgRAR8ANogZ5RwYGtWTxwYV7Vq/qfmLMSE/3tJuj+RPDvdraqSfkI8lKVphaHp0UENnjqq5s8f+GlqMae4YjLdppNyqQ8dO8fWFmsUIPgA3I+ADwAZJJNN64USf8i3bFAqv79T8xVRCfvf2fZoevkDIx2WZZnoTg2c12n9S3Tv2qa1nm3NmcUHr6zzatkkHz41reGTEqQK1JZ/PM3oPwLUI+ACwAXK5nM70XdD5mbJaujY71Y3n8/nV0NKmrh1XaHpkwB7NJ+RjMZVmesmpCW3bf6Ma27qcM5cRjGg23KmnX2YUH7XJjOADgFsR8LEqo6Oj6u/vdx7NWawG4FUm1EzNJvX00X7527Y61dphh/xmK+Rv36eZMRPy+whimOf1zfSiTjO9pfAHggo3tetC0qfTp884VaB2mK9rAHArn3XRxlUbLul3f/d39alPfcp59CrzDvc3v/lN7d271/5h2NzcrFKppOeff15XX321rrnmGueZr5qentanP/1p+2NifVzsW3x+/WL3jeU8XnjOuNj5S30cYzkfq+Ji5xc+dzmPV/NcY36tqalJ8Xhc2WxOzx06ricu5NW0aY9ztvaY//b07JRGzp9Qc0eP2nq3M221zplmeuZrYrT/tBqaWi+63v5yyuWScrMTakmc1i+9/S41xGLOGWDjvfvd77avVVpaWpwKALgHAR+XdbGA//DDD9sX+yawxKyLsx//+Md6//vfr4mJCY2Pj+uKK66wn1f5EjO3JuB/5jOf0Qc/+MHXBJ+FX4aXOmcs9fcal3p8qY9TcannXOrxcs4ZK/29S/1Y5rYSzubXKubfNy732Fj4cS71HONi942lPr7UxzAudX6xj2Fc6vHF7ldc6nzlsbk1f/ebN29WT0+PBobH9NWHX1R4+43rvi3ecpn/9vTs9FzIb+9W2yZCfr0yzfRmx4c1MXjO+jrYdtn19pdTyGWVm+jT3TtjuvHaq/m6Qs24//779Y//+I8EfACuRMDHZV0s4CcSCQ0NDdmh3UzJD4fD2rdvn9ra2l4T8NPptGZmZuymNeb2y1/+sn7t137NPrfwy2/+48r9yq25+LvU+flMbbF6xWK/92IfZ/6tsfB5S318qY9hXOr8Ss6Z+5UL5qXcLnbfmF+v3C61VrHw/MLnXOq2ct+Y/3ixcwtvF7tvLPU5lzq38Hax+8b8upFIpvTI80f04mR41QFpvZivpUxiRiPnjqupvcsKdzte8/8I7zPN9CaHzmtq5II27b566evtL6OYSSg2eVz/6p6b1Nra6lSBjfXOd75Tn//85wn4AFyJgI/LuljAX6qpqSkNDg4qlUrZbwo8+OCD+rf/9t/aAWFh+Jl/W7lvXOxxpbbwfsWlzi/lnLHw/MLnVG6NhecXOzf//PxbY+H5hc9Zzm3lPmqHWdZypm9ADz59UtHtN9hd693CDvnJuZDf2Nql9s2E/HphmumNXzitTCqh3p1XLmu9/eUU8znlJwd0c490xy3X8zWFmvC2t71NX/ziF3nTCYArEfBxWasN+POxBh/1bDaR1I+fPqRjqcaa6py/VObHRTY5a4f8eFuH2jftJJB5mmmml7aXZ5jGiz079ysYCjvn1k4pm1Rk8qTuv/OAOjo6nCqwce699179y7/8CwEfgCvRRR8A1oEZvR8cGdOZsaQrw71hwnw03qRuK+glp8Y1PnD2NctC4B2mmV5qelKDpw4rEo1ry75rqxLujXIgrNlAqw6dPMfXEwAAq0TAB4B1kM5kdfTcsHLxXqfiUibkNzSqe8d+KwBaIf/CGUKZx5hmetOjgxo6c1TNnT0r7pS/VIFgSOHmTp0anrWbtAIbLRgMOvcAwH2Yoo/LYoo+sDpmG0mz9v6Bp06qYeeNTtXtysqmEho+e1wNza3q2LKb6foeUK1mepdTLOTttfg3dZd1J2vxscHe8Y536J//+Z9psrdCJStafPIr/8d5hFpmXmv/X295tza1r89rPdYHAR+XRcAHVsd0zn/4ucM6OBVTa88Wp+oNdsg/d1yxxhZ1biXku1k1m+kthVmLH50wHfVvZO0zNhTb5K2OCfgf/dz/R9vecJVTQU2yEuDIqX79h1vu15bOHqcIL2CKPgBUUalU0vjktI71T6i5y+XT8xcRaWi0m69lEtMa6z/NdH1XMs30Uho+d8yebbJ1/w3rHu6Nkj+kGX+LTp2/4FSAjREIBJx7WDmfAqEgRy0f4aCVBHlT3osI+ABQRdlsTueHRpVr6Jbf782Lxkgsrp5dVyqTtEJ+3ylCvousZzO9ywkGQwo2dejwmUGl02mnCqw/swaf2UgA3IqADwBVlEhn9PLZYcXbvD39LRxtUM/OK5VNzVoh/yQh3wXWu5neZZlAFYzYo/gXBgadIrD+aLIHwM0I+ABQJblcTv2DI0r5mxWKxpyqd5mQ322F/EwqqVFCfk0zzfQmBs9qtP+kunfsU1vPNufMxgoEwypHW/TSyQt8/WDDEPABuBkBHwCqJJXJ6nj/qPxNnU7F+8LRmL0mP5u2Qv75E4S0GmSa6ZlZFsnpCW3bf+O6dcpfCp/fr0C0URM5n4aHh50qsL5CoRBT9AG4FgEfAKrANCszzfUGZ3KKt3Q41fpgQn7vjv124zZCfi2pjWZ6lxUIKRNs0cnzQ04BWF8m4AOAWxHwAaAKzPT8C8PjykbanUp9MUsSzEh+LpPWyLnjhPwNVkvN9C4nYJrtxdt0amBcqVTKqQLrhy76ANyMgA8AVZDK5HT8wrjirbUz/Xm9hSIm5F+hQi5DyN9ANddMbwlK/qBSgSaNjIw4FWD9MEUfgJsR8AFgjeXzeQ2PTWi2FLEbz9UzE/K7d8yF/OGzxwj566xWm+ldjj8QUjHSrGPnWYeP9UeTPQBuRsAHgDWWswJ+/8ikCtE2p1LfKiG/WMhZIf8oIX+d1HIzvcvxBwIKxpo0NJXR7OysUwXWBwEfgJsR8AFgjaUzeZ0ZnKy75nqXYof87SbkFwj5VeeSZnqXUfIFlfDFNTIy6lSA6jOvTSbgM0UfgFsR8AFgDRWsADs6MamUogqGI04VRigStUL+vrmQf4aQXw1uaqZ3Of5AUIo26UQ/6/CxfsxrOCP4ANyMgA8AayiXy2tgdEr5aItTwXyVkF8qmpB/xAr5JecMVsuNzfQuxUzTD0TjGpnJ0E0f68b0UKGLPgA3I+BjXZgtwz796U/r9OnTTgXwprQV8M8NT6qhqT63x1sKE/K7TMgvlTR0mpC/FtzaTO9yyr6gUr4GjY+POxWguswIPl30AbgZAR9VNzk5qV//9V/Xxz/+cQ0NDTlVwHvMeufpmYRm8j6FY/XdPf9y5kL+XrPgVUOnjthhHyvj5mZ6l+UPqhCK6+zgmFMAqsuM4DNFH4CbEfBRVSbcf+ELX1AsFtP73vc+3XHHHc4ZwHvMyM/41LTyIfc1NNsIoXBUnVbIL1v/DJ0+bIX8onMGS+ONZnqXYqZK+8ONOj84zptAWBeVNfiM4ANwKwI+qqYS7js7O/WJT3xCf/iHf6iWlhb90i/9kvMMwFuyuYL6R6cVbGD9/VKZkG+P5FsX00OnrJBvBVVcnpea6V2S9XXhC4aUCUTtnylAtZklhazBB+BmBHxUxfxwf++996q9/dX1yFu3bnXuAd6Szec1MD6jWBMBfzlMyO/etkc+f0CDpw/bzeJwcV5rpnc5ZV9AKcU0MTnlVIDqoYs+ALcj4GPNXSrcA15lLgqnZmaV88fmtvfCsgTNSL4V8k3ndDNdv1jIO2cw3yvN9Pq81UzvUszXhD8cV98wI/ioPqboA3A7Aj7WFOEe9cqsgZ6cTigfbHQqWK5gOKKurXsUsC6u50J+zjkD4zXN9K70WDO9SzBvmPkjMQ2OTdrfZ0A10WQPgNsR8LFmCPeoZ7l8QUOTswrGCPirYUJ+px3yw/b68mKekF8PzfQuyx+yZ8fMzMw4BaA62AcfgNsR8LEmCPeodybgj0wkFIk3ORWs1FzI323fmpBvpqXXq7pppncZZZ9fGV/ECvizTgWojsoIPlP0AbgVAR+rRrhHvTPbd6XSGSULZbthHFbPDvlbrJAfMSH/kAq5rHOmftRbM71LMQ0Yi4GohiennQpQHTTZA+B2BHysCuEemFt/P5NIqRhscCpYC5WQHzLrr+ss5NdjM71L8VsB3x+OaXicKfqoLtbgA3A7Aj5WjHAPzDEBfzaZUiEYdypYK3Mhf5fC0bgd8k2jOa+r12Z6l+Lz++UPRTSdTNsjrEC1MEUfgNsR8LEihHvgVflCUaMzKQUjMaeCtWRCfsdWK+THrJB/2oT8tHPGa2imdylmP/y8L6JkMulUgLXHFH0AbkfAx7IR7oHXKhRLmpxJ26PMqA7TWK5jyy5FGxrtkXwThL2EZnpL4PMp5wsT8FFVTNEH4HYEfCwL4R54PTOCP5VIKxSlwV41mcDbvnmXIvFmDZ4+7JmQP9dMb4BmepcxN4If1swsAR/VY0bwzTZ5TNEH4FYEfCwZ4R54vbkO+mmVghHrgpCX1GqzR/I371TMhPxTh5RNuzvkv9pM7xTN9C7Db31/+YJhjc8Q8FE9TNEH4HZcjWJJCPfA4kzAT2eyKgUiTgXVNjeSb4X8xhYr5L9shXx3Br7XNNO7imZ6l2Ma7fmCc432gGqpjOADgFsR8HFZuVyOcA9chB3wszkV/ayXXk+VkN/Q3OaM5CecM26wSDO9OM30Lsfn91kBP6TpWW/1X0BtYYo+ALcj4OOSTLg3DY0I98DiisWSkumMykFG8NebPV1/0w7FTcg/aYX8VO2HfJrprYYV8H0BFWUdxaJTA9YWU/QBuB0BH5dk3sX+2Mc+RrgHLqJoBbaZVN4KaQT8jRAwI/km5Ld0aMCM5KdmnTO1h2Z6q1f2+VTwB+1O50A1MEUfgNsR8HFJ5ofc7t27CffARZgR/EQ6awVNAv5GsUP+5u1qbLVC/slDyiRnnDO1w26mN0AzvdXzq6QQI/iomsoIPlP0AbgVAR8AVsGM4KezeStkhpwKNkIgODeSbxrVmZH8TKJ2Qv4rzfRmaKa3WmYEv+gP2SEMqAZG8AG4na9sce4DAJZpbHJKX/rBU/JtvUn+AOs2N1qxkNfE0HnNjo9o856rFW1scc5sBNNML62R8yfsLRR7du5nvf0KmL4FZmmDYWZC+FKj+rnrNqu1dSM/t/Cqz3zmM7r77ru1c+dO+f2Mgy2ViROZTEb79+9Xybr/0c99SjvfdMA5i1o1eOyc/sNN79KWzh6nAi8g4APAKoyMT+nz33tSsT1vcCrYaCbkTw71aXpsyAr51yjWZDrUr+90WxNK07NTGu0/rYamVtbbr5C5RElOjenCiYP241KhIF92WrfsaFZHW6tdA9bS17/+dd12223q6ekh4C9DJU687W1vs15ufQR8lyDgexMBHwBWYWRiWp///tOK7brFqaAWvBryB52Qb0Z71yfkm2Z6s+NDmhg8r7ZN21hvv0qFXFYZp3miCfj+zKTu2tOonZt77Rqwlv7yL/9S999/v7Zt20bAXybTt6Cjo0MmWBDw3YGA700EfABYBRPwP/vD5xXfcYNTQa0wIX9quE9TIwPatPeAGtYh5Jsp5JNWsJ8auaBNe65mvf0aKxUL8qUndfeOqK7awxsnWHt/9md/pl/91V/V1q1bCfgrxBR99yDgexOvXACwGqbTso+GTLUoEAyptWebWrq3aPDky0rNTFnV6r2nTTO99eCTzx9QrlhyHgNry2zBaJrs0UUfgFsR8AFgVayLQCtwoDaZkN/Ws1WtVsgfsEJ+cmbSqq51yDfN9FIaPnfM3r5t6/4bFI2bdf9Yc+b9NL9feQI+qoQu+gDcjoAPAKviU9nHS2ktq4zkm7XwZiQ/Ob12Id8000tZH2/w1GFFonFt2XctnfKryGf+sb7figR8VAkBH4DbcVUKAKtgYmLZDCuipgWCQSvkb1Vb73Yn5E9Yn7jVhXzTTM9s3zZ05qiaO3volL8ezLea2Qu/RMBHdZiAH7ReL5iiD8CtCPgAsEoEfHcwId9M12/fvEMDJ1YX8k0zvYmBsxrtO6XuHfvolL9uzPea3wr4c4+AtVYJ+ADgVgR8AFgNK2+YKcNwB38gaK/H79iyUwOnTMgfX3bIp5neBjMZnw2AUCUm4AOAm3FVCgCrYeUMdht1l0rI79yyywr5h5WYWmrIp5leLZibOc2sGVQHAR+A2xHwAQB1x4T8lq7NdsgfOm1C/tglQz7N9GqI/WniTTVUBwEfgNsR8Ovc2Jh1UQtg5ewp+owmutFcyN+kzq0m5B/R7NTooiGfZnq1xf4M8T2HKjEBn1lZANyMgF/Hksmk/vmf/9l5BGBFrOvAcpmOX25lQn5zpwn5uzV85phmJ18b8mmmV2vsbzj5yfeoEkbwAbgdAb/OPfbYY/rWt77lPAKwXCZn+Jku7GrzQ/7IueN2yDcjeDTTq0F2vrcCPgkfVULAB+B2BPw6d8cdd+jBBx8k5AMrVpaPEXzX8wcCau7oVeeW3Ro+e0zjA2et26M006tF1vdbIMDlC6qDKfoA3I6fkNBf/dVfEfKB1SgXnTtwMxPyG9u71GQdJ575iQq5rLbsPUAzvRpStofwSwr5uXxBdTCCD8Dt+AkJGyEfWClG8L3CNNObHR/W7MSoNu+7dq65nvV4/pp8bDDrc2F6XgSDXL6gOgj4HmG9bJ955rAuHD7jFID6wU9IvIKQD6yACX8lRvDdzjTTM9PyR/pOqXfXldp25Y3q2rZHY/2nNDM+xJTdGmF/GopFhYOBuQKwxpii7w2Tg2P260Vycto6ZpwqUB8I+HgNQj6wXCbgM+LjZpVmeqmZCW13mun5/XPT9bu2mpB/mpBfM8oql4qKhAj4qA6+z92vkMtr5HSfuvdsUefOTdb9C84ZoD4Q8PE6hHxg6XzWtaDfXoPPRaH7lJXLpDR8bvFmeibkm/X4ndv2avzCGc2MDXLxv8HM33+5VFCUgI8q8dPfwfVGz1xQc1eb4m3Nau3tUiAY1Pj5Yecs4H28imFRhHxgacx2XdFISMVC3qnADcqlklLTkxo8dViRaKO27Lt20WZ6PhPy27rUZYX8iYFzmhkl5G+ockk+K+BHQkGnAKytoBUGfT62YXSrxPi0EhOz6tmzzf48+gN+de/arOHTfcqlMs6zAG8j4OOiCPnA5ZnRnpgV8At5Ar5b2M3zRgc0dOaomjt71LV9r3NmcT7rc9zY2jk3kj94zv69hPyN4VNZARUUCDCCj+owAR8uZb0um+n4nTs2yT+vT0ekqUEd23o0coap+qgPBHxcEiEfuLSAFf7i0YiK+ZxTQS2b30yve8c+tfVsc85c2lzI71D39r2aHDqv6ZELhPyNYP2dB8pFQhiqhq8t9xo7N6hQJKzW3nanMseM5Hft3KxcKquZ4QmnCngXAR+XVQn5DzzwgFMBUBEI+NQYDdl7pqO2LdZMbzlMyI+3dKhr2z5NDvdripC/7uwR/FKeEIaqYYq+O2USKY2eHbQb65nX6oX8gYC6dmzS0Kl+lYrsfANvI+BjSUzI//a3v60vfvGLTgWAYUbwm+NRFQuM4Neuec30Sq9vprccdshvbVfX9n2aGr5ghfx+Qv56KpfkLxPwUT18bbmQ9RI8enpAHVaAjzREneLrNXa2WK/fTRo9M+BUAG8i4GPJTMj/6U9/qr/7u79zKgDm1uCHFSgygl+LXtdMb+/izfSWw+czI/lt9nR9M1V/apiQvx7M33G5aDro++l0jqoJhUKM4LvM1NCYvTVe5/Ze8wLtVF/PvEHbs2eLpofGrZ8Ls04V8B5+QmJZTMh/9tln9Zd/+ZdOBahvJmg0xCIE/Bo0v5leyxKa6S2HCfkNVsjv2n6F/WdMDvcR8qvMvFlTLuTU0tjgVIC1xwi+uxTzBQ2f7lfXrs12x/zLCYZD9t74w6douAfvIuBj2UzIT6VS+uQnP+lUgPplunnHohH5i2y/U0sWNtNrXWIzveWwQ36zGcm/QjNjQ5ocIuRXU7lsAn5eHc1xpwKsPQK+u5g975s6WhVvX+KyK59PrZu67DfnJ/rYGx/eRMDHinzoQx9SIpHQr/7qrzoVoD6ZqZzRSESRwNyIMTbeapvpLYf5/MeaW62Qv08z4ybknyfkV4kZwVcxq7YmRvBRPUzRd4/kxIxmx6bVs2frsj5nlb3xh071KZ9m9h28h4CPFfvgBz+oiYkJ/bt/9+/0iU98Qn19fc4ZoL4ErYuFtsaY8pmUU8HGWLtmesthh/ymVvXsuEKz48OaHDxHyK8CX7mkiHJqbGx0KsDaYwTfJazXWDM13+x5Hwgt/3MWbY6rY2uPhtkbHx5EwMeKdXZ22vvjm5H8s2fPatu2tZ8CC7hByLog7GhpUDaTdCpYb9Voprcc9kyOxhZ179iv2clRTRDy15xPJYXKOTU0MIKP6jHLrlD7xvuGFAqH1Lqpw6ksj3nNNuv2c4m0ZkYmnSrgDQR8rNqXvvQldXSs7AUW8IJQMKD2priUYwR/I1Szmd5yzIX8ZjvkJybHCPlrynTQzyviKygeZw0+qocp+rUvm0xr+PQFK6Avvuf9Upm98c0MgOHTfXNLgACPIOBj1WKxGFsWoa6Zr/+mxgaFimmngvUy10zvTFWb6S2HHfLjTfZ0/eSUFfIHzhLy10CpWFIpl1Fna5NTAaqDKfo1zno5HTk9oM5tmxRpjDnFlWvqalVDU6NG2BsfHkIqA4BVMlM6m+IN8ueZor+eXm2mN1n1ZnrLUQn5ZiQ/OT1uvwFByF+dcqmocj6jno4WpwKsvWKxSMCvcdPD4ypksvZWd2sx08LMAOg2e+MPjlo/SxJOFXA3Aj4ArJK5yIiEQ2pvalAmNetUUT0b00xvWeyQ36ienfvt3gDjFwj5q1IuKlw2I/g19nmGp+TzeTvgM0W/RpWcxnpL3PN+qUKRsDq2b9IIe+PDI3zWBQdXHHUqmUzq05/+tD7wgQ84lZX7yEc+oj/5kz9xHgH1J5lK6/EXj+r5yYhaOjc7Vaw1s04yPTul0f7Tamhq3bD19suRTSU0fPa4Ys0t6tyym/CwAqVsQg1Tp/See29hDT6qxjQN/uu//mv9zu/8Ds0cV8FEi//35/9a/hV0t7+UkvX6f/Klo2ppb1nV2vvXK9vLgKbHprT/5gNOrT6Urf/v/+d9/1o9rfTS8hICfh0j4ANrJ5fL6cipc/r+0Uk1b7nCqWItmWZ6s+NDmhg8r/ZN2zZ8vf1yZNNOyG+0Qv5WQv5ymMuUYnJSvfk+vfvt9zhVYO1NTk7qM5/5jN7//vfb/YWwMuZ7Np3NOI/Wlvk5sLbh/lXmDYR6XKIRjUTk9zGp20sI+HWMgA+sHXNh0Dc4oq8/dkTRHTc6VawV00zPdKWfGhnQ5j1X18x6++XIpZMaPndM0YZmdW7bQ8hfomIhr+LMkG7pLuv2m65zqsDaGxkZ0Re+8AW9973vJeADcC3ergGANWB30o83qDFsBbkM2+WtpVptprdc4VhcPTuvtPs0jPWdYk3+UpWKChYy2tLV5hSA6igUCuyDD8D1CPgAsEYioaC2dLQok5h2KlgdFzTTW6ZwtMFuvJe1Q/5JQv4S+MpFxcoptbUR8FFdNNkD4AUEfABYI+FwSJs7W+TLzDgVrJRppme6zw+eOqxItFFb9l6rYCjsnHU3E/K77ZH8hEb7ThDyL8F8HRRzabVE/WpsbHSqQHWYEXy2yQPgdgR8AFgj5sKwvbVZobwJ+IS2lTJNlKZHBzR05qhaOntc0Sl/ucLRmHqtkJ9LpzR6npB/MaViQeVMQjs3dToVoHoqI/gA4GYEfABYI2ZaZ2NDTD2tcaVmp5wqlsM00xsfOKORvlPq3rHPVZ3ylytkhXwzXT+XSWvkHCF/UaWCoqWUNnezhROqrzKCzxR9AG5GwAeANRSNhLSrt1X5xKRTwVLZzfTOu7+Z3nKEIibkX2H9v5uQf5yQP5/5uyjm7fX3HR0EfFQfU/QBeAEBHwDWkLk47G5vUyTHOvylm9dMr+yNZnrLUQn5hVxGI2ePEfIdxWJBhfSMdm7upLM51gUBH4AXEPABYA2ZINLS3Kj2hoAyCUL+5Xi5md5ymJDfvcMK+fmchgn5c6yAH8nPatfmbqcAVFdlmzym6ANwMwI+AKyxhmhY+7a0KzMz5lSwmHpoprcccyF/n/X3YkL+0ToP+db/eymnuFLq6vL+Ug3UBkbwAXgBAR8A1pg9Tb+jTZG8abTHSOxi6qmZ3nLYIX/7FVbIz9d1yDdv/hST09qzpVuhUMipAtVFwAfgBQR8ADYTJDbqKJVKG34Ui8U1O4yWxri64yG7YRxeqx6b6S1HKBK1Q37JChvDZ+o05BfzihYT2rW1xykA1VcJ+EzRB+BmPuvCgeGlOpVMJvXpT39aH/jAB5zKyn3kIx/Rn/zJnziPLm2jv+Rq4Uu+Gv8N5mPOPyoW1hZ7XLld7Kicq9wuvL/Y48XqFfPPzz8qFjtnjsq5hbeLHQvPVR5Xbhfen3/Mr1/s/vzDXAguVjf7KQ9PTGm6aZ/ad11r/36YZnppjZw/Lp8/oJ4d++tyvf1SmTdCRvtOWl9jfvXuvtK+rQflckmFxKS6s+f1nvvukd/PWATWx3e+8x1Fo1HdeeedzBwB4FoE/Dp2qYBvviwOHz6sffv2KRyeuwA372yb2nXXXWc/nu/DH/6wPvrRj9ojofO/pMz9yrHw8WK1yuPK7VLPLTwq774vdq5yVFzs3PzbhffnH4vVK+Y/nn9+/lE5V7ldeH/+UbHYOfP/PP8w5t9e6qj8/ks9t3KucrvYsfDcwscXq1XqxvzH88/PPyoWOzf/qFjsXOWYf75i/vlK/XK1xR4PjY7ryz98RsEdNysQrO+LRdNMLz07pdH+02poaq379fZL9WrI96l311Xy1UHYLeSyKk726959jbrmyv1OFai+Bx54QK2trXrDG95AwAfgWgT8OnapgH/69Gk9++yzuuaaa9TQ0KBEIqGJiQlNTU3p/vvvd571qv/0n/6T3vWud9lvAswPOYsdFZX7C88vVl/4+GK1hfX59+cf8+sV888vPCoWO1c55p+ff3/+Mb++lPuLHRUXq6N2JFIpPfLcER2ciqqle4tTrT9mPfXs+JAmBs+rfdM21tsvUz43t6TB6Nl9tedHtEuZhGLTJ/WL99yk5ub62S4RG++rX/2qNm/erJtvvpm1+ABci4Bfxy4W8CcnJ/Xoo4+qsbFRV155pf7+7/9e733ve9XR0WHXzdS1hZYzRR+oF+YNrzN9A3rw2bOKbbvWvCvjnKkfppnexOA5TY0MaPOeq1lvv0Im5I+eP2XdK9sj+X6P7gtvN9ebGdI1zRm95Y5bnCqwPr70pS9p165duuGGGwj4AFyLhW14naamJjvEm1Hho0eP6qabbtJzzz3nnAWwVOYCsaujTd1xn5IzE061ftBMb+2Ewqbx3h77dXno9GEViwXnjMcUc4oWZnTV7q1OAVg/pkkqTfYAuB0BH69jfri1tbXpnnvu0Zvf/Ga99a1vtQ9jsdF7ABfXEI3o6h29Ks+OOpV6YJrppTR87qiK5aK27r9B0ThTrVcraIX8rm1WyA/4NXTKCvmFvHPGG0qloorpWXWGi+rt7XWqwPoxzVEZuQfgdgR8AKgi06Ry6+YeNSulbCrhVL3LNNNLTU9q0AqgkWijtuy9lk75a8gO+Vv3ym+FkKHTRzwV8kuFnALZSd24f7tTAdaXWVZFcz0AbkfAB4Aqa4xFdP2eXmWnBp2KN5n109OjAxo6c1QtnT10yq+SYDhihfw99s4M5o2UohWM3c5sjVfKJtVSTthNzoCNYAJ+IBBgij4AVyPgA0CVmVH87Zt7Fc9NKp9NO1VvMc30xgfOaKTvlLp37KNTfpWZkN+5dbc9O8IO+dbfv5vZ//3JCd181U5GULFhKgEfANyMgA8AVWZGg1qaGnTDvi1KjQ84Ve+gmd7GeCXkW7eDpw7Zb7K4kdnMp5xNqVUz2r61freTxMYzAZ81+ADcjoAPAOsgEolo55YeNWTHPTSKTzO9jWaH/C1WyI/ENHjSCvm5rHPGPYr5rMrJMd20f7tisZhTBdYfU/QBeAEBHwDWgblgbGtu1E1XbFHaA6P4NNOrHXMhf5fC0QZ7JN/sme8Wc2vvE2otT2v3DprrYWMxgg/ACwj4ALBOzCj+7m2b1JSfcHVHfZrp1R4T8ju27lQ45oR8l8wSMaP3vuSY3nDNbkWjUacKbAzW4APwAgI+AKwTM4rf2hTXLVduVX7SjOKX5064CM30alcwZIX8LbsViTXaMyvymdoO+fa+96lpdQXT2snoPWpAZQSfKfoA3IyADwDryB7F375VnYG03ZTOTWimV/vMMomOLbsUiTdp4PQhu0dCrSrns4pkxvXGa/fSOR81gRF8AF7gK5v2tahLyWRSn/70p/WBD3zAqazcRz7yEf3Jn/yJ8wjApeTzeR07fV4/fHlQ0a3XuGC0yDTTS2vk/HH5/AH17NjPevsaNzfT4qwyiWlt2n2NPXW/lpSsIJWbGtQVjSndd/cbnCqwsT784Q/rD//wDxWPx50KVurYhTPOPdS6bZ29ioYi8vsZ9/UKAn4dI+ADG2cmkdQPnzyoU5lmNXdtdqq1xzTTS89OabT/tBqaWllv7yIm5E9YIT9thfze3VcrEqud0FLMJBSdPqWfv/1qdXUxEwS14UMf+pB9PdPY2OhUsFJ//e3PaiyfkD9IaKxl2URav3b3L2pH9xYCvocQ8OsYAR/YOMViUef6B/TAE0cU3HpDTY6Im2Z6s+NDmhg8r/ZN21hv70J2yB88p9TMlDbtqY2Qb7byy0/06Y3bIrrtxmudKrDxfu/3fk8f//jHCfhrwAT88vYmhRvZ+rKWDRw5o1+98R3a0UXA9xI+kwCwAcw6z009Xbp5T6/So+fNfmHOmdpAMz1vsNfkb9qheHOb3V1/o3dvMDNCiulpdZQndWD/HqcK1AazBh8A3I6ADwAbJBaN6qq9O9Xpn1Vyetypbjya6XlLwAr57Zu22yF/wA75s86Z9VfKZxRJj+ruG/eroaG2+gIApj8KE1sBuB0BHwA2UFM8ptuu2iH/TL89urmxTDO9lIbPHVWxXNTW/TcoGm92zsHN5kL+DjW2dMyF/OT6h/xiPqfs9LD2dUW0fTvb4qH2MIIPwAsI+ACwgcz2YDu2bNKBLc2aHjqzYVP1zZsLqelJe//0SLRRW/ZeS6d8j7FD/mYr5Ld22SE/k5xxzlTf3NT8GXUUx3XzNVc4VaC2EPABeAEBHwA2WCwW1XVX7FKnpjdkqr5ppjc9OqChM0fV0tlLp3wPCwRD9nT9xnYr5J+0Qn5i2jlTXWZqfjg1rLuu36vmZmaFoDYxRR+AFxDwAWCDmX3w21qadMeBXQpMnbcCd945U32vb6a31TkDr7JDfu92NXd02yP56dnqhvxCPqvs5ID2d8e0c+dOpwrUHkbwAXgBAR+r8q1vfUv333+/8wjASgWDQe3cukm37O5UauTMuowivbaZ3k0006sjJuS32SG/d17IX/uvuVKpqPzsuLrKE7rl2v1OFahNZvtSAHA7Aj5WzIT7//W//pd+8zd/06kAWI1oNKpr9u/WtlhOM6MDVqVaIb/STO+YiuWS00yvyTmHejEX8reptXOTFfJfVqoKIb+cS6spO6K33HpA8fjG78EPXApT9AF4AQEfK2LCvfG9731PP/dzP6d77rmHqW3AGmiKN+j2a/aoIdlXlfXRr22mF9eWvQdoplfHTMhv7d2qli4r5J80IX/Kqq5NwClk0ypO9uvWfZu0efNmpwrULq5jAHgBAR/LVgn3JthX/OzP/qw9xRjA6vj9fm3q6dQ91+9ReeKsSsW1u+CkmR4WY4/k92xTa/cWDZ6wQv7M6kP+K+vuO/w6cBVd8+EOTNEH4AUEfCzLYuEewNoyW+ft2blNt+xoU2rw1JpMGaWZHi7llZBvHWYkPzkzaVVX9nVn3pTKz4yqRxN64w1X200kATcIBALOPQBwLwI+loxwD6yfWDSq667aq90tJU0PnbOy1spDPs30sBSBYNB+48esyzcj+cnpiWV/3Zk3o4rpWbXmRvQzb7hOjY2Nzhmg9jETEYAXEPCxJIR7YP01xht05w1XqlsTmpkYsirLDfk008PymJDf1r3V3ivfHslfZsgv5VIKz/br7ut2q6enx6kC7kDAB+AFBHxcFuEe2BhmanN7a7PuvmGfotNn7RH4paKZHlbK74zkd2zeuayQb5rqlSbO69Y9ndq1i/3u4T4m4LOkBIDbEfBxSYR7YGOZNaHbNvfqZ266Qv7xU8qlk86Zi6OZHlbLH7BCfvcWdWzdZW+hl5gav2TIL+Qyyo6d17WborrhwFVOFXAXRvABeAEBHxdFuAdqQ6Xp3t3XbFNp9KSK+Zxz5vVopoe1Yof8rs3q3LJLg6cPKzkz4Zx5LdMxPzPRr/2tRd1+wzVOFXAf81rLCD4AtyPgY1GEe6C2hMNhXbl3p96wu03ZkZOLjqYWclma6WFNmZDfYoX8zfsOKBxtcKqvKhZyyk4MaHtwVnffep39dQq4FSP4ALyAgI/XIdwDtSkajeraq/bphk1RJQeOvSbkm+7lZiSVZnpYaybkx5vbFYrEnMqcYiGvzMSQuooj+tk7bqRjPlyPbfIAeAEBH69BuAdqW0MspluvvVJXdwaUGDxpB3vDTCuNxptppod1Yfa6z06NqKMwpPvedLNaW1udM4B7MUUfgBcQ8PEKwj3gDvF4g+646Rpd0VpSYujUKyEfWA+VcN+WG9B9d9ygzs5O5wzgbkzRB+AFBHzYCPeAuzRZIf+eWw7oiua8FfJPE/KxLuxwPz2q1swF3ffG69Td3e2cAdyPgA/ACwj4INwDLtXUGNebb71Oe5tyhHxU3SvhPn1Bb3/jterp6XHOAN7AFH0AXkDAr2PxeNw+DMI94E4m5N9723XOSP7i3fWB1TLhPjM5bIX7fivcH1Bvb69zBvAORvABeAEBv8792q/9GuEecDkT8t9ihfyrzJr8gROEfKwp0y0/PTGg9uwF3XfHdYR7eJYZwQcAtyPgA4AHNJo1+bdeq+u6fEpeOKpyseicAVbO7HOfHutXZ25A77zrJqblw7NKpZI9gs8UfQBuR8AHAI+INzTozpuv1S1bo0oPHFEhl3XOAMtXyGeVGjmvrYEJvestt9MtH55WKBTYBx+AJxDwAcBDYrGobrv+ar1pT6vyA4eUTc4yZR/LVshllBo+oyuaMnrnPW9gn3t4ngn4rMEH4AUEfADwmEgkouuuvkJvuWazSkOHlJqZoMM+lqyQTSs/cko39wb1tjfdqsbGRucM4F2VgM8UfQBuR8AHAA8Kh8O6ev9evfO2/YpMnNDs2CAhH5dULpeUT03LP3ZCd+9r05vfeLP9ZhFQDxjBB+AVBHwA8Chzsbpn1w79wj03alN5RDNDZ60UV3LOAq+qbIMXmzypt16/VTdeezUjmagrjOAD8AoCPgB4mN/v1+beHt3/5lt0bWvO7rBfyGZYl49XFPNZJYbOqi15Vu984zXas3u3cwaoH4zgA/AKX5k5mwBQF7LZrA4eOa5Hjg5JHbsVa25ntKqeWT/+TTO9zMhpXdnu05tuPqDm5mbnJOBNZju8EydOOI9eNTg4qKefflpvf/vbWZqyBr7w8APSliZtvnqXU0EtGjhyRr964zu0o2uLPSAAbyDgA0AdyefzOnOuTz954aSmwr1q7dlm/SQg5NebUrGo3OyEIol+3bavR9ddvZ8twuB55pK3r69Pzz77rFN51cjIiE6ePKlbb71VoVDIqWKlfvjSY4rv7da+N93gVFCLCPjeRMAHgDpjXvYnJqf02AtHdGpKCnXuVCgSI+jXiUIuq9ToeXWVx/Wzb7hWW7Zscc4A9WGxS9/jx4/rhRde0C/8wi8wgr8G/vrbn5W2Nync1OBUUIsI+N7EZxIA6oyZlt/R3qa33Xmz7t7TrEL/i5odH170ohfeUS6ZLvkzKgwf0/UdJb37rXcS7lGXzGvgwqNYLNoj94ud41jZYf3i/I0DWE8EfACoU2aU6voDV+kX775eWzSsxIXj9ppsszYbXlJWMZ9TYuScYhNH9c4btuqtd79BTU1NznkAdNEH4BUEfACoY2bd9fatm/Wv7n2D7toZVf7885qdGDLDvc4z4GblUlG5xLRyg0d1dWNa7773Nu3dQ5d8YCET8OlDAcALCPgAAEWjUd18/QG9+57rtcM3qmT/EWVTs0zbdyvr82ZmY8wMnlZ86pjedfM2vePeO9Ta2uo8AcB8pgEp2+QB8AICPgDAZkavtm3ZrPvvvV33XtEq/+BLmhk6p3KxwLR91yirVMgrOTEo39AhvWGTX7/01ju0exdbVQGXYkbwK2vwAcDNCPgAgNcIh8O67sDV+pV3vEk3d+aUPvfcq9P2Cfo1y2x9l52dUmbgiHZoWL/4pmt09+03s9YeWIIrr7xS1157LdP0AbgeAR8A8DpmFKuttUV3v+EmveeuA9odHFPy3EtKTo9bGd+szyfo1wq7O346oZm+o2qePKJfuHm7/tXb71Fvb6/zDACX09HRoa6uLrYKA+B6vIoBAC7KrEk10/Z//s2361237FBP7rySfYeUnpki6G8w8/efz6Y01X9ckZGDuu+adv3bn79Xu3btJKQAAFCnuAIAAFyWWZu6d/cu/dLb3qR3XNurjtRpK+gftoL+pBlCNmnTeSaqq+yM2Cc11Xdc4aGX9LP7mvTL77xb111zld0sEQAA1C8CPgBgycz6/Kv279O/ue8uvfO6XnWlzyh5/iUlp0btoE/X/Sqx/l7NlnfZxLSm+44oOvKi3naFFexNn4Trr1E8HneeCAAA6pnPuhjjagwAsCJma6nz/Rf04vHzOj+ZVT7eq8b2HvmDphu1eQYdqVfD/Ig2uxhkZsZVmhlSZzCtW6/Zo53btykWiznPAoDa8tff/qzK25sUbuR1qpYNHDmjX73xHdrRtYWlXR5CwAcArFqxWNTI6KgOnTirQ+dHVWjoVqi5R9HGZpWtkM/WU8tgQr11mH3sUxODashNaFt7VDfu36nNmzfT5RtAzSPguwMB35sI+ACANWN+pCSTSZ0536eXTg5oJC3lY12Kt3UqGDbrwwn7izKh3vxTLCg9NaZSYkTN5YSu3bdN+3ZstTt8A4BbEPDdgYDvTQR8AEBVFAoFjY6N6eS5fh09N6JZNajY0Kl4S4cC4Yj1jPoO+3M/fp1QPz2hwuyYmsqz2t3boqt2b7O3uTPNDQHAbQj47kDA9yYCPgCg6sxa/cGhIZ06P6gTF8aUVEz5SJtiLe2KxBqtmGt4PPDbo/TmtqRiPmuH+nJ6Qo3FhLZ3W6F+12b19PSooaHBfjoAuBUB3x0I+N5EwAcArCt7ZH90VOcHhnWib0TjqaIV9lvki7Uq2tiiUCQ2L/DP3brRKz9erdtSMa/07JRyyUlF8zNq9GW1d1uv9lhHZ2cnDfMAeAoB3x0I+N5EwAcAbJhSqaREIqHhESvwD47p3PCEZvNSLtiscqRJ0bh1gRhrlD8QeDX02zc1FPorI/POr9b/lHKZlHKpGRXTswrnZhS1Av2O3nbt2tyl7q4utba2cjEFwLMI+O5AwPcmAj4AoGZUAv/ExKSGxibVNzKu0amkcv6ICsG4CoGYwtG4dTQoGInNC/7Gq6H/1YH/1bwRYH3kuX/nmXtkPmrZ+m/N5zLKp1PKZ5Py5VIKFlMKl7Jqb4xoS3ebtna3q62tTc3NzXS/B1A3aiHgZ2ZT9s+UaGOD9bOC8LoYAr43EfABADXNbME3OztrH1PTsxqamNHY1Kymk2nlyn4V/VGVAhHrNqxyIKxAMKRgKGzvxe8PBOcO68LFZwVsn2/+BUwl/M/9GDQ/DsulosrWn1cqFew/t1jIq5TPq1DIqlzIKVjKKVDOK1DM2veb4zF1tjaqq7VJnW3Nampqsg+a4wGoZxsd8Au5vAaPnVM+k1Xvvu2KtTTWdVPXiyHgexMBHwDgSubHl2nel8vl5g7rfiabVzKTU8q6TecKylhHLm8dxZIV2EsqWKHdBPuS/au5mDE/As1O/VLA71Mw4LePSCioSDCoWCSohkhI8VjYvjXBPRwO24e5zwURALzeRgf8if5hpWeSKuaLisRj6tjWo6D1Go7XIuB7EwEfAAAAwJrZyICfTWU0fKJPrZs77VA/fnZQbVu6FW9rko8Q+xoEfG/iMwkAAADA9YqFoib7RxRrblBDS6MamhvV2Nmq6eFxO/gzrol6QMAHAAAA4HrJyRnl0hk1WaE+GAratebudpWKJSUmplUqmGVagLcR8AEAAAC4Wj6b08zIpJq72hWORVXZTjUQDKh9a7cy00llEmmVS4ziw9sI+AAAAABcy2xbOjkwaof5eHuz/NbtfPG2ZkUaY5oZmbDfCAC8jIAPAAAAwLXSsymlJmfnpuaHF++W39LbaW+bl55OqGTvqAJ4EwEfAAAAgCsV8wVNDY2pqatVsea4fP7F97sPxyJq3dSl2fFpZZM03IN3EfABAAAAuNLM6KRK+aI9eh9wGutdjHkTwB/wa3Zsyn5jAPAiAj4AAAAA1zFT7hPj02rualMwHHaqF+fz+dS+uUvZZFqZRMpeuw94DQEfAAAAgKuYdfQT/SMKN0TV0Npkj8wvRbQ5rnhbk6aHxpVLZyWm6sNjCPgAAAAAXCU5OWuPwjebqfnhS0/NX6ilu12FfEGJiRkVabgHjyHgAwAAAHCNQjb/6p738Zg99X45AuGQOrb12B31s2ZvfEbx4SEEfAAAAACuYMK46ZpvuuU3djTbe9+vRGN7i0KxiN2kz7xhAHgFAR8AAACAK5hp+cnJmUvueb9UrZs67XX46ZmkSkUa7sEbCPgAAAAAap695/3AmOJtzYq1NMrnX12UiTRE1dLTrtnRSWVT7I0PbyDgAwAAAKh5s+NTKuTy9n72wcvseb9UTV1tkk9K2Hvj03AP7ucr81YVAAAAgDXyN9/+vDKtAYVil9+bfsmsxNJ3+JQijTE1tbfKH1y7ccrUdEJTQxPavG+7IvGoU/W+8b5h/T9u+znt6N6y7EaFqF0EfAAAAABr5is/edC5t4asyDJyYchuqudf5dT8xaSTKXVu7lE4EnEq9eGeG25XR0sbAd9DCPgAAAAAAHgAa/ABAAAAAPAAAj4AAAAAAB5AwAcAAAAAwAMI+AAAAAAAeAABHwAAAAAADyDgAwAAAADgAQR8AAAAAAA8gIAPAAAAAIAHEPABAAAAAPAAAj4AAAAAAB5AwAcAAAAAwAMI+AAAAAAAeAABHwAAAAAADyDgAwAAAADgAQR8AAAAAAA8gIAPAAAAAIAHEPABAAAAAPAAAj4AAAAAAB5AwAcAAAAAwAMI+AAAAAAAeAABHwAAAAAADyDgAwAAAADgAQR8AAAAAAA8gIAPAAAAAIAHEPABAAAAAPAAAj4AAAAAAB5AwAcAAAAAwAMI+AAAAAAAeAABHwAAAAAADyDgAwAAAADgAQR8AAAAAAA8gIAPAAAAAIAHEPABAAAAAPAAAj4AAAAAAB5AwAcAAAAAwAMI+AAAAAAAeAABHwAAAAAADyDgAwAAAADgAQR8AAAAAAA8gIAPAAAAAIAHEPABAAAAAPAAAj4AAAAAAB5AwAcAAAAAwAMI+AAAAAAAeAABHwAAAAAADyDgAwAAAADgAQR8AAAAAAA8gIAPAAAAAIAHEPABAAAAAPAAAj4AAAAAAB5AwAcAAAAAwAN8ZYtzHwAAAABW5cnjLzr3UOu2d21WW7xZ0XDEqcDtCPgAAAAA1sxnf/J1nU2OKBgNOxXUomwypZ+54nbdvPtqAr6HEPABAAAArBkT8MebC2roaHYqqEUT/SN6U88B3bT9SgK+h7AGHwAAAAAADyDgAwAAAADgAQR8AAAAAAA8gIAPAAAAAIAHEPABAAAAAPAAAj4AAAAAAB5AwAcAAAAAwAMI+AAAAAAAeAABHwAAAAAADyDgAwAAAADgAQR8AAAAAAA8gIAPAAAAAIAHEPABAAAAAPAAAj4AAAAAAB5AwAcAAAAAwAMI+AAAAAAAeAABHwAAAAAADyDgAwAAAADgAQR8AAAAAAA8gIAPAAAAAIAHEPABAAAAAPAAAj4AAAAAAB5AwAcAAAAAwAMI+AAAAAAAeAABHwAAAAAADyDgAwAAAADgAQR8AAAAAAA8gIAPAAAAAIAHEPABAAAAAPAAAj4AwJPK5bJKpZLzCAAAwPsI+AAAV6oEeHMUi0UVCkXlCwXl83llszmNT0zo2PHjylmPc/mCfWQvc1SeZ/+enHNY9/NWrWB97IL155g/y/yZ5s83BwAAQK3wWRcnXJ0AAGra/EBtjqL1OJVKK5lKzd2mM0qkMvZtOpNVyjqmpmc0m5jV5m27VfYFVJJfJZ9PxbJ1yKeSdWt9MAX9UsC6a521jrL1g9E6WyqqXCrY98PBoGLRsHVE1NgQVWMsqnhDTA2xmOLxmFWPyef3yW99bN+8AwDq1Wd/8nWNNxfU0NHsVFCLJvpH9KaeA7pp+5WKhiNOFW5HwAcA1JSFQT6bzWraCuvTM7OamZ3V6OSsxmaSypbDyvqiyvjCKgdjCkUiCloXKMFQRP5AUNnkrKbHB7V5zwHnIy+f+W8oFfIqmCOXtY6MfSifUYMvq3DJug2U1N3WrM7WRjU3N6mluVlNTY0Kh8OEfgB1iYDvDgR8byLgAwA2nD3V3vpxZKbBJxJJTUxOWseUhsenNZm0AnWkWYVQXNlAg0rBBoWicfn9F19lVrY+XnJmQtMjA9pyxXVOtRrKKpplAZmkAvmUosWkgvmEAlbw72iOq6ejVW1t1tHaao/6m/9mcxD2gepLpVLW60lC3d3dTgXrhYDvDgR8byLgAwDWnfnRYw6znj2TzWpkdEzDo+M6Mzih2VxZ/liLiibUh5sVicWd37V0dsCfntDUcJ+2XnmjU10/5s/PpWcVys3Kn52W37pti4e1Z0u3ujo71N7WplAo+ErgB7D2Tp06pRdffFH33XefU0E1RSIRBQIB+z4B3x0I+N5EwAcArIv5oT6RTGp4eEQDw6M6MzylQqRNuVCLfPFWhaPLD/QLzQX8cU0Mntf2q292qhtnLvAn5E9PKJKftkf692ztUm93tzqtwB+LRgn7wBp76qmn9M1vflO/+Iu/6FRQLSbY79y5Uy0tLfZjAr47EPC9iYAPAKiqSqf7VDqjwcEh9VvH+dFZleKdykc7pFiLFWznRn3WSrk8N4I/3n9GOw7c6lRrR7mQl9LjimRM4J/Vjk1t2tzbqx4r8IfDITvoM40fWJ2HH35YDz74oN7xjnc4FVRLPB7Xnj171Nraaj8m4LsDAd+bCPgAgDVnfrSYUG+2mDPT78/3D+jEhTEVYx0qNnTJ19BW1QBr/vz0zKSGzx3Xrutud6o1qlRQOTGmUGpUkcKsrtq9VZs3b1JHW5sCAUb1gZV64YUX9Mgjj+gDH/iAU8F6IeC7AwHfm7hqAACsGROsTaO82URSLx89rq9+/zE98ORJvTDdqOymW1Xu2i9/vL3qo9Pmo/usYGzeZKh5/qB8zb3KWxdZM9036vGBsr7+8Ev61o8e0+mz55ROZ+xlDbwfDyyPeZ3hDTIA9YZXPY8ZHR21LwQBYD2Z8GlG60fHxvX08y/psw8+rB8en9FofI9C229QpH2zAqGQ8+x1YF3Y+3zWj7iSe14PTRgJhGMKde5QefMNOqNNeuD5Pn3p2z/RkWMnNDMzS9AHlsH+nnKavgFAvSDge8yzzz5rd4wFgPVgB/tcTkPDI3rymef1lR8+rWdG/CptvlGNW/Yr1jjXcGlDmFkCVsg3De7cxm+Fknhbl2JbD2i24xr99OS0vvHjx3Xw0GFNTk4R9IElIOADqEcEfA/6H//jf+hb3/qW8wgA1t5csM9reGRUTzz7gr7xyIs6ONMg345bFenaqVAk6jxz48xNz/Wp5KJR/IXMLIRQrEmh3iuU7Lpej/dl9a2HntFLL1tBf2qaoA9cgpmeT8AHUG8I+B70+7//+/rOd76jb3zjG04FANZOPl/Q2PiEnnr+RX3tp8/r5Zm4yltvUbBtq/yBoPOsGmFd4JddHPBf5ZM/FFWga69S3dfryQs5feunT+vQkWOamU24o9cAsM5Ygw+gHvGq51F/+Zd/qR/96Ef62te+5lQAYHWKVog0zfOee+mQvvyDp/T8RFjaepMV7LfU5kW0dXHvmkZ7y+ALhuXv2K1E57V6+ExCX/vBIzpx6rSy2RxBH5iHKfoA6hEB38M+9alP6aGHHtJXvvIVpwIAy2emgKfSaR0+dkpf+N7jeqzfCpKbb1CkY7v8wXVsnLdMppO+36Vr8C/LBJdwVMHuvZptv0bfPTisr/7gUfVfGFShwLR9wCDgA6hHBHyP+5//83/qscce05e//GWnAgBLl8/ndWFwWN995Dl996UBJZr3Kr5pn0LRmPOMGmZG8O2A792dRcz/X7ihWeFNV2owsEnffPK4HnrqBXt9PqP5qHeswQdQjwj4deAv/uIv9NRTT+mLX/yiUwGASzPhMJlM6YWXj+pffvKczuTb1LzrejU0tzrPcAcvTtFfjN11v71X/s0H9MKo9M2fPKFTp8+oUCgwmo+6xRp8APWIV7068ed//ud67rnn9PnPf96pAMDiTHf8/oFB/eiJ5/RMf0qBrTeqsXOzc9Y9fOYfnwn43h3BXygQDCneu0vJtqv1yNEhPfLksxofn2A0H3WJKfoA6hEBv4584hOf0MGDB/W5z33OqQDAq+y19qmUXj5yVN9+/CWdL3Ur0LPfHdPxF2Nvg+/RNfiXYN7UCDY0K9exX0dno/r+Y8/q9JmzbKmHukTAB1BvCPh15r/9t/+mw4cP6x//8R+dCgDInso9NjauJ547qGf6kir03KBQS7dz1q18dpO9ehrBn88XCMrXtk1Tzfv15PFBPfv8i5pNsKUe6kPlzSym6AOoN7zq1aE//dM/1cmTJ/X3f//3TgVAPctkszpx+qy++9gLOpFukrqvdO+o/Ty+Oh3Bn8+M5gcaWpRsvUIHx6UfPPyUBgeHCPnwPBPwzdc5I/gA6g0Bv059/OMf19mzZ/V3f/d3TgVAvTEXwKaR3kuHjumnB89ronGPfC3uW2t/cVbCtwN+fY7gv0YgpELzDg0Etuinzx/TiZOn7O30AK8y4d68xhHw69fM6KSmBsdUyOadClAfCPh17GMf+5guXLigv/3bv3UqAOqFufidmJrWT59+Sc9cyKjce62iTW3OWY9wOmgzWj3HZwWdcGuPZlqu0KPHR/XEsy/aPRdYlw8vYgS/vuVSGU1eGNXomQtKTs3ycwB1hYBf5z7ykY9oaGhI//f//l+nAsDrzN725/ou6DuPPq+TqQYFe65QIBRyznqHzxx1vAZ/UeZNj0hcufa9enGkqB8++gxd9uFJJuCbgzX49adULGpqaEzRxpga2lqUnkkon8k5ZwHv41UP+vCHP2xd4I3rf//v/+1UAHhVNpvV8VNn9b0nD2s0uFnRzu3OGQ+ywqzPb8V8wuvr+INhBTp36nS2Wd979FkNDA4S8uEpjODXr9RUQtlURg2tTerY3mMF/pLS0wkVWZaEOkHAh+0P/uAPND09rb/+6792KgC8Jp1O69DRE/rpwXPKdF6phvYe54x3MYJ/cf5ASJHObRqL7dBPnzuuM2fP2VvpAV5QGcEn4NeXfDan2fFpxa1wH2uOKxqPqbG9RcmJGWVmkvbXBOB1BHy84kMf+pAGBwf1/ve/337MaA7gDeaCJplK6cXDx/XkmUmVe65RrLHFOetdPnsE3wr4RV7LLsbvDyjS0q3ppt16/Gi/jp04SciHJxDw64/5fM+OTpk79uh9MDy39Cze3ix/MGCvxafhHuoBAR+v8Xu/93v2mnwT8v/hH/5BL7zwgnMGgBvZ4T6Z0nMHj+i5Cxn5eq7yxBZ4S+XzBay/AwL+pZg3QoJmK72WvXr61JgOHT5CyIfrmUEKc7AGv35kk2mlZ5JqaGlUOBZxqlLACvetmztVyOXt9fi86Quv41UPr9HS0qKvfe1rdsh/5JFH1NPj/Sm8gFeZcJ9IJPXUi4f04ogU7N0vfyDonK0DlS76hNUl8YViyrRaIf98Qi8efNluxgi4lXn9Yw1+/SjmC5oeGle4IWKP3vsXfN5jTXFFGxuUnJxVLp1xqoA3EfCxqM997nO6/fbbnUcA3Maeqjib0BPPH9LBiZDCPXucM/XDZ/7x+RnBXwZfKKJ86y491ZfV8y8etJsyAm5kXgPNQcCvDya4m+n39tT8yOK7wjR1tpovDKVMw718wakC3kPAx6IaGhr4oQi4lLmonZqZ1U+fOagXJsOK9exyztQfswa/zAj+svitkF9u36EnBwp65oWDymQI+XCfSsBnir735dNZK+DPqKGtyW6qZ5YdLSYUDaupq83uqG+m6pfpNQWP4lUPADzEXNBOTs/oR08e1MvTDWrZVL/h3kzRt5vslQn4yxWwQn6gY4eeGCjp8WdfJOTDdcxrIVP0vc+E9KnhcXtL1IaWJuu169LL0MybAKFIyB7xz9NwDx5FwAcAj6iM3P/gyZd1PBlXx5adzpn6ZS76WIO/MkEr5Me6d+jZYemRZ15SLpdzzgC1r9Jkj4DvbemZlLKJtB3uw7GwU704M6OjpbdTxULBHskvsTc+PIiADwAeYML9zGxCjz53SCeTMcK9xUzT9LMGf1VMyG+wQv5LoyU9++LLKlgXxYAbmNdEczBF37tMV/yZ0Ql7v/uG1kZ7xtZSROIx+w0BM60/k0zbXyeAl/CqBwAuZy5OEsmknn7piF6ejKhz627nDKwrPvMXxAXcKgTDEUW7duqpC3m99PIhttCDK5jveUbwvS0xPq1SoaR4W/Mre94vVWNHi5WCfEpNzdJwD55DwAcAl0ulUnr+0HEdmvCrnXD/GqbXkr0XvnWhj5UzIT9ihfxnL2R0+MhRQj5qngn45iDge1M2lbHCecIeuQ/N2/N+qcwbAq29ncpZH8eeqs/e+PAQAj4AuJgJ9y8fPanDo3nFevc6VbxqrtFeuUQgXS27u37bDr3YP6PjJ07ao6NArWINvneZdfNTg2NWSA/a2+IFgiv7HDe0NCrcEJ1ruEcjUXgIAR8AXCqTyejYqbM6ODArddTfPvdLYjrp+/yE0bUSjCrdtFMvnxvVmbPn+HtFzaqM4LMG33vMPva5dNYO92bru9Vo7m6zX8fMtnlFGu7BI3jVAwAXMh3NT509r2dODCnbskf+wKW3BqpXZjdke6s8RvDXTMkK+WORrXru2DkNDAzYIQqoNUzR96Z8NqfE+JTiVriPNsd1sT3vlyoci6qpvcUexc/MJHk9gycQ8AHAZQqFoi4MDuvxQ2eVssJ9KBpzzuD15kbwWYO/dswFtS/apKFArx5/4YgmJiacM0DtMEGNKfreMzs6aX9uzdr74GX2vF+qeHuz/NbXSXJ61u7MD7idz/om4a0qD/nOd76j7u5u3XTTTU5l5T796U/rvvvu06ZNm5wKgI1mXrLHJ6b0gydf0oB/kxrbu50zWEwuk9LI2eP2toGxplanirVQKhSUmxrUFbFp3f2Gm9XQwBtNqB1mdsmRI0d04403qr293alivXzhpw9ooDilcDzqVFbP/Py7cPys3SCvsc2E8rUbp0zPpuyA37mlRw3NjU7V+8zMhXv23Kzrd+xXNLz8ZoWoTQR8jyHgA95lXq1nEwk98uzLOp2OK9yxzTmDi8ll0ho5f0JtPVsVb+Eif62VCzn5Z/p1TYdPb7jpegXW8IIbWI3+/n474N96661qbeXNvfX2/acfcu6tIetn4PTEpEols/Ri7V9r8rmcmlpbFI7WV9Ddv32Petq7FAmtrp8BagcB32MI+IB3pVJpPXf4hJ69kFZs036nikvJZ9MaPX9SzZ29amzrcqpYS+V8RsGpM7p9d7uu2r+PpmaoCX19fXbAf+Mb36impianCgDex09hAHABu6neuX49fWpU4U72ul+6uW3y6PZePb5QRLmmbXry2KAu0HQPNcJ8HbIGH0A9IuADQI0zF6kjYxN6/PA5+Tr3KBAKOWdwOabBMvvgV5tPvnBMiVivHn3+qGZnE04d2Dgm4JuDgA+g3hDwAaDGJZIpvXj8rDLxTWqgUdwyVfbBJ+BXk98fUKS5QzPhLh08cpwZE9hwlYDPkhEA9YZXPQCoYZlMRsdOnVVfwq9o+xaniiWrjOAXCZzV5guEpKYenZ3M69Tp03a4AjaKeZOJKfoA6hEBHwBqVKFQsPe7f/7koIot250qlscZwS8zgr8eyoGIZmO9evF4n8bHx50qsP7MG0wm4DOCD6De8KoHwFUq0y69eCyUTKV1+FS/iq07FYqs3V7C9cSswTcX+Izgrw+f9RfujzRqJtKtIydOMVUfG8a8phaLvLEHoP6wTZ7HXGqbvGQyae8Lu3//q9trmRHCw4cP67rrrnMqr6qHbfK89uVv/n8qR8X82vxziz2u3C52bv79yu38o1Kr3C6sLzwqFtbmP67UjPmPF56/3P2FtcrtwvrCmrFYfeFjY35t/rlL3TdMIKoc5ntz9+7ddiBNpzM6ePS4XhrKq9Sxx34ulq9YyGt6ZECFfEbdO9hacL34ilk1Jc/rxm0tuuKKffbXN7CeTpw4oZdeeknvec97nAoA1AcCvsdcLOCbT/OPf/xjhUIhbdmyxQ4QiURCExMTmpqa0v333+8881XLCfhmC698Pn/RILPwqJj/eP75+XVjsfrCx8b82vxzC+8vvJ1/VGqV24X1hTVjsfrCx8b8WqW+2OPK7cKjUq/czq8b88Nixfza/HMLHxvza/PPXe7+wlrldmF9Yc1YrL7wfuV24VGpV24X3p9/VCxWX6xmLFZf7HHldrFzl7u/GDPqdL5/QN9/5qjyPdcpFI44Z7BcxUJBM2ODyqYS6t19lVNFtdmvS9lZdSZP6c23XaeOjg7nDLA+jh8/rhdeeEH/5t/8G6cCAPWBgO8xFwv4L7/8ssbGxuxmMzfeeKP+6q/+Su9973vti65HH31Ud955p/PMVy0n4I+MjOj06dP2mwaV8LIwzMyvGYvVF6sZi9UXe1y5vdy5+ffnHxWL1RerGYvVF3tcuV3s3KXuzz8qLlaHN8zMJvTIswd1Nt+uYEuPU8VKlIpWwB8fVmp2Upv3HHCqWBfW330wOaT9TWm98dabWQuNdXX06FE9//zz+uVf/mWnAgD1gYDvMRcL+Ol02h6tNyE8Eoloenrarr/1rW9dk4APYG1kszkdOXFaT56Zkq/nSqeKlSoVi5qdHFZiYkxbrnj9UiRUWSGjxtmzeuMVvdq1a6dTBKrvyJEjeu655/Tv//2/dyoAUB94O71OxGIxe2r+XXfdpdtuu80O9uYwFgv3ANafeb91ejahZ4/3K9vIlnhrwmdmvLAP/kYp+8OaDHTo2cMnlUqlnCpQfeb1lCZ7AOoRAR8AaoRprHf41Dklwp2KxpucKlbDZ/4xXfTp5r4hzN99sKFFU4E2nTh95jU9Q4BqIuADqFcEfACoAeZCdGhsXAfPjSnczuj9mnFG8An4G8cXDKsY79Ghs6OanJx0qkB1mYDPNo0A6hEBHwBqgBm9P352QOXmrQoEQ04Vq+ezm7sxRX+DBSNKhDt04vR5RvGxLky4ZwQfQD0i4APABisUChocGdO5iYyi7TS1XEtmj4m5NfiM5G0kXyAkxTt1diyh4ZERpwpUD1P0AdQrAj4AbLB0JqOT5wdViBPu15y9laSZos+F/kYr+0NKBtt15lwfb7ig6piiD6BeEfABYAPl83kNDI3qwmxRoZYup4o15YR8pulvLF8gqGJDmy5M5TQ8POxUgepgBB9AvSLgA8AGymSzOtM/rEK816lgrfmsgO/3+2i0VwPMtnmJULvO9PWzFh9VRcAHUK8I+ACwQcza+6GRMfXPFORv7HCqqAp7qzwu9jecP6B8pEWD0zmNsBYfVWQCPm8iAahHBHwA2CBm9P7cwIgK8R6ngqp4ZYo+I/i1wKzFTwTadL7vAgEMAIA1RsAHgA1gpo6Ojk3q9GhK/ibW3leT6aRvtspjin6N8AeVi7Tq3FhSExMTThFYW2ZpTiAQcB4BQP0g4APABshmczo/NKp8vNupoGrMCD5T9GtKyYziB1vVf2GAUXxUhXlTj4APoB75rB+s/GT1kO985zvq7u7WTTfd5FRW7tOf/rTuu+8+bdrE1l3AWjIvu2bf+6/+5Dn5t92kQDDknEE15DIpjZw7rvZNO9TQ3OZUsdHK2YRapo/pXW+5XfF43KkCa+PFF1/Uo48+qt/+7d92KlhPP3jxMeceat0Vm3aqu7VD0XDEqcDtCPgeQ8AHal82m9WLR07q8fMZxXr3OFVUSz6b1sj5E2rp3KzGtk6nio1WLmQVmu7TXXtbtW/fXqcKrI2XXnpJjz/+uH7zN3/TqWA9ffYnX9f53LhCMUJjLUvPJPUze2/VTbuuJuB7CAHfYwj4QO2bmJrR1x96TrNNexSNNzlVVIsJ+KN9p9TU3m0fqA2mJ0IhOa4txUH9wlvvstdMA2vl4MGDevLJJ/Xe977XqWA9mYA/3lxQQ0ezU0Etmugf0Zt6Duim7VcS8D2ENfgAsI7M1ngjYxOaLQQJ9+vF3gffrxJ7YtcU0xchGG20vxeGh4edKrA2zBtG5vseAOoNr3wAsI5yuZwujIyp1MC+9+vFjAubbfLKZbro1xqzZV462KILgwR8rC2a7AGoVwR8AFgnZkVUIpXRqYEJRZpZC75+rIhvXeyXGcGvOf5AUIo168zguDKZjFMFVo9t8gDUKwI+FvWtb33LuQdgreTzeQ2PjasUbaNz/nqqTNFnBL82BcLKhZo1MjLiFIDVI+ADqFcEfLzOO9/5Tv3O7/yO8wjAWjEBf2h0Uvlou1PBeqhM0WcNfm0q+wNKBho1PDLKnvhYM6zBB1CveOXDa3zoQx9S0boI/uAHP+hUAKwFE1xmk2mdGZ5SqJG92NeVdaFvGrqZru2oPT5/UAo3qW9sVul02qkCq8MIPoB6RcDHKz784Q/bHb6/+93v6j//5/+se++9ly3ygDViRu9HJybt6fmMKq0/v2myV2IEv1aVrZCfCTRqbGzMqQCrQ5M9APWKq0zYPvKRj9jh/i/+4i+cirRjxw7nHoDVMt9foxPTykVanQrWixnJM032Sozg16yyL6CUP65RAj7WEG+mAqhHvPJBf/RHf2RPH/7kJz/pVACstXQ2rzNDkwrFCfgbwd4mjxH8muULBFUKN+qs9T1iZrsAq1Hp5cAIPoB6RMCvc3/8x39sj2796Z/+qVMBsNbM6P345JQyvga6528Ep9lWiYBf2/whZQNxTUxMOAVgZUzANwcj+ADqEa98dezP/uzP7He3P/axjzkVANVgT8+fnFYm3OxUsJ585h/TRZ8p+jWt5AtoVg0aJ+BjlUy4N9/vjOADqEcE/Dr1iU98QqFQyG6sB6C6Mrm8zpnu+Q0tTgXrzXTRFyP4Nc3nD6gUatC5oYlXplgDK2HCvfkaIuADqEcE/Dr053/+54pEIvov/+W/OBUA1WIuMlPpjEZnsorGGcHfEM42eaUyI/i1zHyO/KGYxpM5tsvDqjCCD6CeEfDrjOmS39jYaG+DB6D6zPT8qZmEFGlyKtgIPr9PpSIj+DXPH1Ah0KCpqSmnACwfAR9APSPg15FPfepTamtr02//9m87FQDVVrRCpQn4xVDcqWC9mUai9j74jODXPLNdXs4f0/T0jFMBls8EfHPQZA9APeKVr058/OMfV3d3t/7Df/gPTgXAesgXihqbmlWggRH8DWUFfJXnLvxRw8xSilBMoxOM4GPlKgGfEXwA9YiAXwf+43/8jzpw4IB+5Vd+xakAWC/5QkFjM0lFCPgbyuebW+NNJ/3a5vcHFAg3aDKRtpe3ACthvs+Zog+gXhHwPc6E+vvuu0/vec97nAqA9WKm588mkioGonZwwUaa2yqPTvou4PerYH3PzMwwTR8rwwg+gHpGwPewt7/97fr1X/91/dzP/ZxTAbCeTMCfsQJ+KdjgVLBhTCd99sJ3hbJ1aZL3RZRIJJwKsDwm3JvvddbgA6hHvPJ51M0336yPfvSj+pmf+RmnAmC9mQvMRDKtAgF/w/nMYU/RZwS/5vn8yiqi2dlZpwAsTyXgM4IPoB4R8D3mxhtv1Lvf/W79zd/8je68806nCmAjmBH86WTKnm6MjTY3gl9mBL/mlazPU8ZnBXzrewdYCaboA6hnBHyP6enp0dmzZ+0RfAAby3TQH59OKxRli7wN5zNLu31WwKdxW60zWxr6gmGNTSXskAYslxm9Z4o+gHrFKx8AVIEJJtlcXolsQcFQ2Kli49gJ377oR40z/RL8QWVLfmUyGacILB0j+ADqGQEfAKrABMlkOmN30MfGM9vkmZFhpui7Q9n6hOV8IaVSTNPH8plwzxp8APWKgA8AVWAuLlNWwM/7Cfi1wYwK02TPLUwn/Vw5rHQ67VSApWMEH0A9I+ADQBXYAT+TU9bH9PxaYEbw5wI+I/huUJJPqXKAgI8VMd/n5mANPoB6xCsfAFTBXMDPyh8k4NcGnzNFnxF8VzCfK3/YXuYCLBcj+ADqGQEfAKqgVCornckpGI44FWwosxG+3wqNRUbw3cDn98kXCCmZyjoVYOkI+ADqGQEfAKrAjOBncjkFGMGvEXP74JfKjOC7gc/nkz8YVIou+lgBE+7NazABH0A9IuADQBWUrAvMTDavAFvk1QS7iz4j+K5hAr4vELS+h3JOBVi6ygg+a/AB1CNe+QCgCszoUTZfUCAYdCrYWIzgu4v5fAVULJu1FcDymNdfRvAB1CsCPgBUw1zbdjtUohZYgZERfHcx30OBoD0SCyxHZQSfgA+gHnHlCQBVYeaEM3pfK+beb2EE323KfA9hBUy4NyP4TNEHUI945QOAavEzelQ7zAi+jxF8Fylbn7OyAozgY9kYwQdQzwj4AFANdlc3Li5ric/6kVey98G3AqMJjQuOSihY/lG6+FFa6VG0/1uXfBSXehRWdRTNUVjsyK/6MB/f/L+/yqcSS1ywAub7kjX4AOqVz3oRtK5sAABraXImqa8+8rIKnfvtxyt7qb3E71nVK7cVSp17S7KkJ6/qP8i2+F/REj6uCdmv3Fr3Kr+l8thiwm1yelxTQ/3aeuX1c58P+9/K8617r9zad1573751nrPgedY957y5mXuC89Cuz52fu//quQX37X/n39q/2rd2Ze7BvN9rbsxzrPv2U+xfXv88+1/zi/2rU3PumyfN3Xn98+3a3OO5yrxzds26sc/PPXvuA8wd8z+WfW+uINMZ37nzyv25W7N+QgoGw2rbtE2t3Vvtc+V8Rq3ZAf3rN9/AVGssy+nTp3X48GG9853v5Gtng3z2J1/XeHNBDR3NTgW1aKJ/RG/qOaCbtl+paDjiVOF2BHwAqIIJO+AfUrHzCnuENZOYsetzL7nzQpHzEjx3M/+xuX01LNm/o3LfPjXvYzjn5p5jV+1b5xlOae7c3F3r1nle5c+Zu2//Wrnz6jn7X6f+yn3ndu6Jr63Zj+0fMM5ju2SeOHfY/84V58r2r9bN/Ftzft59o/L8yjnndi4fml/sX+1bu2LfmJqZ6l1WNjWrmbFh9ezcb047z7Hv2M9Z+PteuT/veaawWDi1K/PO2ffnqnO1eY9fuW//O3fulfr8+87t3M2rz6v8uZXnVh7P/Wt+cX5v5b794NXn2+UF5+z79l1zO/fYKVh37TvO7fy6c7uwZv3y2pp9Z9lMwG/KDOrfveV6QhqW5dSpUzp06JDuv/9+p4L1RsB3BwK+NxHwAaAKTMD/yiOHVe7cp1wmpQvHX3pN8Jm7fe1969e5mqnYN/Nr5mbeOft27vHcv/POLXiec+eV5zs3c79YD+bumlvzeP5955x5ZH6T/aBybu6e+de+55x/Xc3cs8/Nu28/57XnnEev3q+ct2vmoXns3J8rmF/t26UwP+rSs5MaPntcu6673amilpXyWcXTQ/qVtxxQLsd++Fg6E/DNCP673vUup4L19oWHHpgL+O0XCfjWS3coEnYeYKMQ8L2JgA8AVTBuBfwvP3JUvs49TgUbygT8xLQGTh3WnhvucIqoZUUr4MdSQ/rXd+zVsWPHnCpweX19fTp58qTe8pa3OBWst+8+97Bm4kVFWuJO5bX8Ab82XbHDbn6KjUPA9yYCPgBUgQn4X3j4iIJde50KNlomOav+Yy9o7013ORXUskIuo0BiUPdf36vjx487VeDy+vv77XX4d999t1PBevvRS49rtsEK+E0NTuW1/MGAtl27V8FwyKlgIxDwvYmADwBVMDad1D9bAT/cTcCvFSbgm6USu66/XX52OKh5JuD7Z4f0vrdfxxp8LMvRo0f1/PPP65d/+ZedCtYba/DdgYDvTfzE9LAzZ8449wCsN7M0PLjE9eFYH2Ydv9/shf+ardhQq8znKxzkewjLZ8auzDZ5AFCPCPge9sUvflETExPOIwDrycQSv48LzJrj99t7zKP2me8h8j1WwgT8YpHvcwD1iYDvce973/t04sQJ5xGA9cQk8Brj81n/+hnZcwmzuWHAxypCLB8BH0A9I+B73B/8wR/od37ndwj5wDozA48+wklNsWdV2CP4BHy3CPI9hBVgij6AekbA97jdu3frr/7qrwj5wLory1/mArOmmBF8K+CXmKLvCvYbMuJ7CMtnwj0j+ADqFQG/Duzbt4+QD2yEMheYtcZM0WcE3y3KChDwsQJM0QdQzwj4dYKQD6wz6wJTjBTXFNOV3ee3IiMX/q5gL3PhewgrwBR9APWMgF9HCPnAeiLg1565Jntllk64RNn6jBXtN2aA5WAEH0A9I+DXGUI+sE6sC8xyqeA8QE2wcqJpsscIvkuY76Ei30NYPgI+gHpGwK9DhHyg+syoYyjgV7FAQKkVPkbwXaYsX6nACD6WzQR8cwBAPSLg1ylCPlBdfr9P0XBQpULeqaAW+KzPS5mRvZpnB7RCQZFQ0KkAAIClIODXMUI+UD1+n98K+GEV8jmngg1X2SaPEfzaZwX8UrGghljEKQBLZ2Z9BAIB5xEA1BcCfp0j5APVYdZ6x6Im4GedCjaa3ZXdxxp8NzDLKMqlvOINMacCLJ15/SXgA6hXBHwQ8oEqMFP0G6yAXyTg1w5nBL/M7gY1b26Kfl6NjOBjBcwIvgn5AFCPePWDjZAPrC1zcdkQiypUZop+LTGflzL7Y9c8n0qK+AuKRqNOBVg6pugDqGcEfLyCkA+sHXuKfiSiUIkR/Fphd2M3U/QZwa95vnJZkXJOsRhT9LF8BHwA9YyAj9cg5ANrwwT8eENUQQJ+TZmbos8Ifq0zI/hh5Qn4WBGm6AOoZ7z64XUI+cDq2SP40YhC5bzdMAw1wFz0M4LvCj7reyasghoaGpwKsHTm9ZcRfAD1ioCPRRHygdULWReY7U0NymVSTgUbyWf+sS78S4zg1zS7g34hp5aGsIJB9sHH8jFFH0A9I+Djoioh/7d+67f0/e9/36kCWKpg0Ar4zQ0qZQn4tcJskydG8GtbqSR/Kaf2lkanACwPAR9APSPg45JMyP/Qhz6k3/7t39YPf/hDe+uil19+2TkL4FLMNNGmeEyhYsapYENZF/2M4Nc+s/4+WsqosZGAj5VhDT6AesarHy7rrW99q/7P//k/+s3f/E390z/9k5544gnnDIBLMSNITfEGBQpJp4KN5vNb8ZER/Jo2t/4+S8DHijGCD6CeEfCxJPfee6/+5m/+Rt/5znecCoDLsQN+Y1yBfNp6VJ4rYsPYo3o+uujXPCvgm90nCPhYKZrsAahnBHwsmQn5H/vYx5xHAC7HBErTSb8x4lc+Y0I+NpxZg28xy41Qe8znpZTPqiFQVjwed6rA8jBFH0A949UPAKooFAyqu61ZmdSsU8FGsq77WYdfw8qlokq5tLo7Wp0KsDyVN+8YwQdQrwj4AFBFppN+W0uj/LmEU8HG8lkh3/rRxzr82mR9XkKltNpbW5wCsDz2LBCzEwMj+ADqFK9+AFBFZhSppalRviwj+DXBV+mkT8CvSeWigoWUWloI+FgZE/DNwQg+gHpFwAeAKrIDfnOjwuW8CrmsU8VG8ZnDR8CvSSaYFfL2tpIEfKxUZQSfgA+gXhHwAaDKIqGgdvS2KZOYdirYMPYIvk/lImvwa41506WcS2r35k6mV2PFmKIPoN75rBdCWgl71Cc/+Un9xm/8htrb253K6h0/flwPPfSQ3vve9zoVAJeTy+V09NQ5/fj4tGKb9jpVbIRcJqWRs8fUvmWnGpranCpqgemeH5np071Xd2nHjh1OFViebDarkydPamxsTPfcc49TxXr7/E++qb7MmEKxiFNZubL1Tz6Xt++bN2jXWrFYVCgUUsBff7M+0rNJvWXfrbpx11WKhlf/uUJtIOB7GAEfqA1mNGlwZEzffPRl+bfeaI8iY2OY7QpHzh9Xa/dWxVs7nCpqQi6p1sQp3XfHDWpubnaKwPJkMhmdOHFC09PTetOb3uRUsd4ePviUc2/1TFLJ53P2fbMF4lorFktzAT9Qn7M+dm/aro7mdivgh50K3I6A72EEfKB2zMwm9P3HX9BAaLsiccLLRsln0xrtO6nmjl41tnU5VWy0cqmkcmpC+4LD+pm773SqwPKl02k74CeTSb3xjW90qgBQP1igBADrIBIOaVt3q3zpSaeCjTG3TV6pSJO9mlIqKFZMaFsvb7pgdcy4FWvwAdQzXv0AYB0Eg0F1d7Qpkp+em2+IDWFmd9rb5JVpsldL/OWiGpVSZ2enUwFWxoR7E/Lpog+gXhHwAWAdmIvNtpZmNYdKyqaTThXrzye/z68yI/g1o1wuqZRLKR4orOmSMtQnE+4J+ADqGQEfANaJmaa/a1OnfOkJp4J1Z/oz+a2AX2IEv2YUC4oUEtq1pccpACvHFH0A9Y5XPwBYJ6ZLb3dnm0KZSfsiFBvBWYNfYgS/VvhKBTUUZ9XVxfp7rF4l4DOCD6BeEfABYJ2YC8721ha1xfzKJqadKtaTWYNvRvYYwa8N5VJRhUxCrdb3BNPzsRaYog+g3hHwAWAdRSNh7d3SpWJi1KlgfTGCX0vKZnp+blp7t/U6FWB1zOg9U/QB1DNe/QBgHZlu+j1dHQpkJtmqbUNYAZ8R/NpRzCtSnFVPD+vvsTYYwQdQ7wj4ALCOzKhSc1Nc27paNTs57FSxXl7dJo83VzZasZBXPjFhfy/E43GnCqwOa/AB1DsCPgCss1gkrGt29iiUHrMvRrGenBH8IiP4G81Xyqu5PKOr92xzKsDqMYIPoN4R8AFgnVWm6fc0+JSZnXKqWBdmBJ81+BvO/P0X0zPqtr4H6J6PtVRZg0/AB1CvCPgAsAHMKP6BXb0KpIbNkJNTRbX5rH/oor/xfMW8motTuobRe6yxygg+TfYA1Cuf9SLIlaVHffKTn9Rv/MZvrOnWQ8ePH9dDDz2k9773vU4FteJS38oLz13sucupL/W5a/FnGdX481b7ZxnL/Rg+n88ewW9ubtbE1Iy+8ZOnlWjbr3Cs0XkGqqlcLik5Panx/tPaceBWp4r1ZD4HpeSEerPn9PM/e7dCoZBzBli9wcFBHTlyRAcOHFB3d7dTBYD6QcD3sI0I+GZa3HICz1Jrxlo814SrheeW+zEWU42PaSzl4yzn/sLbisXq5r45Kn9nC88tdluxWH2x+5erGQvr82/nfz7NbeW+sdj9y9WMhfXlnF943xyV/0ZzWzmamprsi89sNqtDx0/pifNpBbt2W7/LN/ebUTXmc5GendLw2WPadd3tThXrqVzIKpY4rzv3tGvPnj1OFVgbAwMDdsC/4YYb1NHR4VQBoH4Q8D3scgHfhPXNmzersfHVkcNCoaDDhw/ruuuucyqvdamAXywWNTU1pVwu51ReH3Iqtfm3xqXOGUv5Pcalzpvbpfx3LHyeUalX7ldul/r/ZVzq/PyasbA+/3bhn2keG4vdXqpmLKxf6lzlfuV2sdrC28ox38L6/NuFNaNSn3/OHJX/94X1ymNj4bmKyuP5NWN+vXLuUreXqhkLzy9k/h9Gxyf0jZ8+q2z3AYUiDc4ZVI31d55OzGjg1Mvac8OdThHrxXzNl9NT6k6f0Tvfcoei0ahzBlgbFy5csK9jbr31VrW2tjpVAKgfBHwPu1TAHxkZ0Y9//GO95S1vsd/tNtOFY7GYTpw4YYf0+++/33nma10q4OfzefX19WliYuJ1wcbcLnbfWFi/1LnK/cpt5b6x8DmL3Tcu9pyFt5X7RuXx/PMVC+vzH1csrM+/rdw3FtbnP664WB3uZEbxDx49qaf6swp27bIqfE6rLZOcVf+xF7T3prucCtaLGb1vSPTr9l3N2rdvn1MF1o65DjEj+Lfffrt9bQMA9YaA72EXC/gmUHz729+2Oxfv2rVLs7Oz+tGPfqT3v//9dmB89NFHdeedi49ssQYfWFvmJXhkbELffOg5ZbuuUSjKKH61ZVKzunD8JXuKvt9Pp+31Yr7Wy6lJdWfOMnqPqjl//rw9gn/XXXcpHo87VQCoH7QYrUOmodE999yjcDhsT6s/duyYdu7cqVOnTjnPALBezJtqrc2NunHfFpWnB+wp5Kgun+mkb/2900l/nZm199kxXbdvO+EeVWO/kWQddNEHUK949atD5odeW1ubvT5t27Zt9nT8d7zjHdq7d699/mKj9wCqw7zZtmPrJjUUpuzRZVSfz94qj73w14t5M6WQnlG8NGv/3Pn/t3d3sXGddR7HfzOe8dgeezwejz124sRJbCdpHNt5a5KSUNKmacu2he0ui6j2BqniniKEEEICIYQEEm+9WiQuAK2EuOvCVbmDRaq6F5S2aUPTNE1SO/Hr2DMee95n9jzHxzSFpiSNHc855/tJTz1+zthJk+bM+c3//zwPsFlMuGcffAB+RsAHgC1mqvix9qiO7tup2tJ1+wYVm8isXRFoskMA7g0z976luKD7R4cViUScUWDjre/mQ8AH4FcEfABoAGtV/G1KhEtaXZp3RrEZzDKGppOJFv17o1atqJRLqydSo3qPTbdewadFH4BfcfUDgAbR3tai4/t3qCl3w7pJJXxumkDAbtGv0aJ/b1SKilfTOn5wiNCFTWcCvllfiF1mAPgVr7QA0CBCoZAG+lMaTrYoPz9ljdCqvznMVpNU8O+FWqWk+vKcRlId6uvrc0aBzbNewQcAvyLgA0ADaWtt0fjIDrWuTqlcyDuj2Ej2FHxTwa9Swd9UZi2JYk49Smt07x5nENhc6xV8APArAj4ANBDTwtzTndCJ+wYVyk6uhSRsMKeCzzSIzVUpqLM8pyP7dykWizmDwOYy1XsCPgA/I+ADQIMxq4wP7dqpba0VlTKzzig2TGDtjRQq+JunXq1IK/Pa3h7Q7t27nVFg89GiD8DvCPgA0IBMq/7YyE61rkyqWi44o9gIASr4m8sKWMHyqpL1tEb3DbHYGe4pWvQB+B0BHwAakNnDuT/Vo8PD/Qpl3rPuWgmjGykQDKxVmbHxKgW1F6c1PrRd3d3dziBwbxDwAfgdAR8AGpRp1R/ZPai+lrJKSzN2ZRQbYH2bPN402XD1almBlTnt6AhoaGjIGQXuHVr0AfgdAR8AGtjaqvqDiixfU6mQc0ZxN0zDuGnRr1UJARvJbDtYy2eVqC7o4P4RWvOxJVhkD4DfEfABoIGtt+qfHN2tpqX32Lt9IzgV/HqNELChKgXFijM6dmCP4vG4MwjcW7ToA/A7Aj4ANLjm5mYNDe7Q3mRE+dmr9g0s7o69ij5vlmyYaqmg+tKk9vd3aHBw0BkF7j1a9AH4HQEfAFygtbVFhw4MqzuYUS49be5inTO4U6Z13F5Fnwr+hqhWyiplZjTQUtTYgX3OKLA1qOAD8DsCPgC4gAml8Vi7To8PqzV7TcXVrHMGH4vdok+V727Z8+5XFtVXX9Anjoza3SbAViLgA/A7Aj4AuISZjz/Qn9KnJvYonLmqWqXknMEdCQQUNIvsUcG/S3UFKnl1V2Z06tBeJRIJZxzYOibgM40JgJ8R8AHARcLhsIZ379SxXQnVF961bmSpQt+pgPnBHPy7V8ormntPx0b6NTAw4AwCAICtRMAHAJcx++OP7hvSwZ4mleeuEPI/Bubg3516uaDw8pTGt0c1PDzsjAJbz0xnMt1OAOBXBHwAcKHW1lYdGt2vPdGCCgtTtKTeib9tk8cbIx9HrVxUPXNd+7rq2r9/vzMKNAazQwYBH4CfEfABwKWi0TYdHR1RX31eK+kZQv4dCAQDzMH/GKqVkkpLN7QrsqyJsVF7ygjQSEwF34R8APArroC4LRcvXtQXvvAFvfrqq84IgK1mbmKT3QmdHN+reP6a8pl5Qv5tsAOA3aJPBf9O1CpllTOz2q55nTgyrmg06pwBGgct+gD8joCPf+q1117To48+qhMnTmhiYsIZBdAIzI3s9v6UHjy0Vy2ZyyosL5llpJ2zuCUr4BusX3B7atWKKsvzStVm9ODxCXV1dTlngMZCwAfgdwR8fKSXX35ZP//5z3XlyhU999xzKhQKisVizlkAjSAUCmlwx3adOTSipvQlFVayhPx/wsoArKR/m8xUhnIura7StB48ckA9PT3OGaDx0KIPwO+4AuKW/vjHP+rXv/61nn/+eWdEGh8f1+c//3nnMwCNwsyFHtq1Q2fGd6ky+7aKq8uE/I8UsIKA9RLIPPyPZHYaKC+n1b4ypYeO7lN/f79zBmhMLLIHwO8I+PhQv//97/XCCy/oJz/5iTMCoNGZkL93z6DOje9Qbe5tlfI5Qv6tOFU+Kvi3ZsJ9JbeoWH5K546NaNu2bc4ZoHHRog/A7wj4+Ae//e1v9eKLL+pHP/qRMwLALZqbm7V/ZI8esUJ+OH3RCvlU8j9MwP6XCfhU8D+MCffVlbS6S5M6e2RYAwMDzhmgsRHwAfgdAR8f8Jvf/EZ/+tOf9MMf/tAZAeA2diV/aLceHN2h9swlFVcyVsYn5H+AFQLMVnn1KhX8v2cW1KvnFrS9MqXT44R7uAtz8AH4HVdA/M0vf/lLvfLKK/rBD37gjABwKxPyh/fs1gP37VR82Qr5y4uE/L9jtsqr1ang38wO98tz2lG/ruPj+wj3cB0q+AD8LmDd8HHH51Hf//739aUvfUmJRMIZubWf/exnunr1qr73ve85IwC8oFKp6MrVa3rptbeVju5Ra2fSrl77XbmQ1+y1i4r3Diga73ZG/c3sc1/LzmgwOKdjEweUSqWcM4B7XLp0Sa+//rqefvppZwRbYTo9q6ZQyO6UQuOqVqpKtHcq1GT9WXFv4BkEfA+73YD/05/+VHNzc/rud7/rjADwEhPyr1+/of97/aIWWrYr0N5rXf393cBVLuY1994lxbr71N7Ftm+Bakmh3A31a0HHDo8rmUw6ZwB3eeedd3T+/Hl99rOfdUawFZ5/4RdabakpHGl2RtCIMjMLevahf9fOXuvegIDvGQR8D7udgP/jH/9Yi4uL+s53vuOMAPCiarWqufl5vfLGRc3Uu1Rq3+brkF8uFjQ/+Y6ind2KJfucUX8KVguKrk5pe6SgQ+NjisVizhnAXcwt7eXLl3XhwgU9+eSTzii2wq9e+p1WE0GFWgj4jSw9OatnDpzVQDxFwPcQ5uD7mAn3mUyGcA/4gJmTmurt1QNHxrSnZUXhpSu+3gPe3McEzDZ5dR8vsmeFoWAlr47cNe2NS8ePHSXcw9VMwDcHi+wB8DOugD5lwn02m9W3v/1tZwSA15l35+PxuI4fndB9CSv0z7+lSmHVp4vvmVX0g6pX/fkmR71WU72QVXv2HY1tb9fhw4fV0tLinAXcyVzLatb/2yyyB8DPCPg+ZML9ysqKvvWtbzkjAPzEBLnD46M6Otip4OybKmTTJvE5Z30isLaKvgm6fmMW0ystTaszd1kn9w/owIEDVDzhCesVfAI+AD/jFd1nTLjP5/P65je/6YwA8KNIJKKD9+3TuSPDSq5eVj17w2ch3yT8oGq+mqZQlypFhbLXNFC/rofvH9WuXbucc4D7rVfwecMKgJ9xBfQRE+6LxaK+8Y1vOCMA/CwUCmn3rp16/PQRDUWyCqffUb1SMnfJzjO8y0xXCAaa/FPBr9cUKK0qlntXY911PfrgA+rt7XVOAt5ABR8ACPi+YcJ9uVzW17/+dWcEAEwRO6ju7m598sQRTfRH1Dr/hmqr/mjZtxfZ80MFv1pWMDetZO6Sju1J6sT9xxSNRp2TgHeY6j1z8AH4HQHfB0y4N1tkfe1rX3NGAOCDTMv++MED+uT4bvUWriqUmbRX2TfVMG8K2FV8EwY8y/qzM6vkty1f0YBmderIfRoeHnZOAt5DBR8ACPielkql9Pzzz9svdl/96ledUQD4cKZlf9fgoM6dvl/3xUsKz11QKbfkyWr++jZ5dY9W8M1CeuXsjDqzl3R4e5vOnDpJSz48z9zvMAcfgN9xBfSwL37xi/aWWF/5ylecEQD4aKaq3dHRoWOHJ3Rqf5+6V95RLf2eHYS9Vc03FXzvraJfN2/GlPMKLV7WQGVKpyeGNTo6yhZ48AUq+ABAwPe8L3/5y84jALh94XBYI8NDevLMcR1MVFSbelX5pbm1ircXgr5TwffMHHzrz6RaLio/P6XW9F91YrBDjz10Sv39/c4TAO9jDj4AEPABALdgqvmxWEwnj07osaPD6i1PqTj9tkr5nBUo3V35Dlg/TBuv+1v066pXKyrl0qrPXdRQS0aPnzyosYMHqNrDd2jRBwACPgDgnzBz8/fs2qnPPXpKZ4Zjap17Q5X0NdXKRfcGfVPBd3uLvpk2UVyV5i+pO/e2nji8U0+dPa2enh7nCYC/0KIPAAR8AMBtam5u1tjoffqPxz6h+3vrisy8KmWumxXdXBj0A+5t0bd+rwOVvIJLV9SV+avO7O3S04+d0eDgoPMEwJ/WK/gEfAB+RsAHANy29bb9o4cn9JlPHdVYZ17N039RIDftqqAfMEfACvhVF70xYQf7gkKZa+pauqCTAxF9+lPHtW/fPtrxAct6BZ8WfQB+xhUQAHDHzA10d3e3jh87ok8/MKbR9pyab/xF9cyU3bpvr+auBl6ML7BWwV/7dTYwK6zYrfilVTUtvquuxTd1f3+Tzp06qoMHD9o7HgBYwyJ7AEDABwDcBXMjnUqldOLYUT1xekIT8aId9KsLV1XOr6iht9cLWC+CDRoEzBsP9WpZldUlaf5tdabP68RARI9+8pjGxsbU2dnpPBPAuvUKPgEfgJ8R8AEAd83cUJvF3UxF/98eOaGT25rUNn9e1ZmLKmYX3m/fb6Cwb1bSN236DcP83li/R6YDorg4Lc1cUHfukh7a163PPHLartib6REAPpwJ96yiD8DvuAICADaMubGOx+M6cmhc//nUwzo32quhwHWFb7wqLb6nciFnt5w3ylz9La/gO6F+vVrflL6sjoXzGmvP6qnjw/rcvzyskZERtbW1OV8A4Fao4AMAAR8AsEnMqvsjw0N6/KFTevL0uO7vk1LLb6l5/g3VszdULa6szS/fqsq+mYe/FRX8m0J9tbCs4NJVRa1Qv7P0rk7v6dBTZ+7XQ6dPatu2bQQV4A4wBx8ACPgAgE223r5/+NCE/vXxMzp3eEhHuoqKp88rMHNelfSkSvllK/BWrNzrBP57wF5J/14EAVNVtEKH+W+rVUoq5RZVXXhXkdnX1bfylh4YaNbjJ8f05GMP2yvi04YPfDxU8AHAurexLoSNMyESAOAblUpFc3Nzmpqe1duT81pYraoQiqmprVORaKdCzc3WswKqB+woLrNF30YqFfJamLqs/qFRZ2RjrL2s1s0LrP1mRaVYUDG3JBUyateKUu3N2jvYr1SqV4lEYu2LANy169ev68KFC5qYmFAymXRGsRV+9dLvtJoIKtRiruNoVOnJWT1z4KwG4qkNf43F1iHgAwC2nGmrzWazmp6d17Ub87qxsKRiPaRac4fK4agCkXaFW6yPTtj/W+g3X7xFNyXrQd78Y/2K7MemSl9aXVagtKJwJadgeUXRkDTQl9SgdSST3YpGo/bXA9hYU1NTdsA/evSourq6nFFsBQK+OxDwvYmADwBoOOuBf3FxUUtLGU3PL2kuk1M11KayOYItqgRbrZvHFjWFWxQINjk537lBsT55/8Xt/ZuWD9y+rH9y06vg+w9v+mr74frnay3AtWrFrsxXS3mFqwU11/IKVVYVCZSVSsTUl+yyFxs0B4EeuDcmJyf15ptv6uTJk0x12WIEfHcg4HsTAR8A4ArVatUO/cvLy8rlVrSUXdbsUk7p5bxK9YCCISvohyKqN4Wto1lVNakWCKkeDCnQZB3BoIJmUT37uOlGxn4VrNnB3V4DwBzWz6V6RU1167vUytZPXlLAfCyXrHNWoLe+RU+8XT1dHeqKtdshvqOjQ+3t7WzRBWyRa9eu2RX8U6dO2X8XsXUI+O5AwPcmAj4AwNXMy5gJ/+Vy2Z7Xbx6bwzw2nQDFclUF6zAfS9W6ipWaSpW6KjXr5c/62nBTQJFwkyKhgJpDQbWYx9bRHGqyw3ooFLIX7Vr/GA6HWcQLaEBXr161K/hnzpxRa2urM4qtQMB3BwK+NxHwAQAA4HpXrlzRG2+8oXPnztnbdGLrEPDdgYDvTfQRAgAAwPVMzcocTJMB4GdcAQEAAOB6JtybaTlMoQHgZwR8AAAAuJ4J9+ag1RiAnxHwAQAA4Hqmgm8W2AQAPyPgAwAAwPUI+ABAwAcAAIAHrM/BBwA/I+ADAADA9Uy4p4IPwO8I+AAAAHA9KvgAQMAHAACABzAHHwAI+AAAAPAAAj4AEPABAADgAQR8ACDgAwAAwAPM/Hvm4APwOwI+AAAAXI8KPgAQ8AEAAOABBHwAkALWxbDuPAYAAABc6c9//rP+8Ic/6LnnnnNGpFKpZAd/bD7z5kpbW5v9+Fcv/U6riaBCLc3252hM6clZPXPgrAbiKQUCAWcUbkfABwAAgOudP39eL7/8sp599ln7c3OL++KLL9oHNpcJh2fPntUTTzxhf07AdwcCvjcR8AEAAOB68/PzunHjhsbGxpwRbBUCvjsQ8L2JOfgAAABwvWQySbgH4HsEfAAAAAAAPICADwAAAACABxDwAQAAAADwAAI+AAAAAAAeQMAHAAAAAMADCPgAAAAAAHgAAR8AAAAAAA8g4AMAAADwlFK+qHKhpHq97owA/kDABwAAAOAZ1XJF1y+8qxt/fVel1YIzCvgDAR8AAACAJ9RrdaWnZhVqblZxtajVpWXVKlXnLOB9BHwAAAAAnlDIrSo3t6T4tm6lhge0sphVMV+gVR++QcAHAAAA4HqmUr94fU4dqYRaO6KK9SYUijQrO7uoSqnsPAvwNgI+AAAAANfLzqZVK1cUS8bVFA7ZY13bepTP5lRcXlW9VrPHAC8j4AMAAABwtXKxpIwV8Dt6u+yq/bpItFWdqW5l5hbtlfVFpz48joAPAAAAwLVqtZoWJ2fV0t6maDymYNMHI068L6latabcQkbVSsUZBbyJgA8AAADAtcxK+avZnGKphELNa635NwsEA0ps79WK9bziKgvuwdsI+AAAAABcqVqpKnNjXrGehJpbI1aaDzhnPija1WEvvJeZXlC5UHJGAe8h4AMAAABwHVOJX7o+p0AwqPZkp5pC/1i9v1l8W1KF3Mra3vhVFtyDNxHwAQAAALhOcSVvr5zf0dOlcHPYGb21cKRZiR199lz8Eq368CgCPgAAAABXMRV4s+d9e7JLrbGoXcW/HZ29CQVDTcrOLapaZsE9eA8BHwAAAICrLM8vqVIoKWa2xbuN6v3Nurb3KJ/J2R0AVPHhNQR8AAAAAK5RLVWUmVlYa82P3Fm4N8xiex3JuP09TKs+e+PDSwj4AAAAAFyhXqtpYXLGXjE/mjB73jc5Z+5MZ39SlWJZuXRW1WrVGQXcj4APAAAAwBXy2ZxWFrOK9dx5a/7NmkJNSuxI2Svqs+AevISADwAAAKDh1SpVLV5fsOfdR6KtCtxiz/vb1Z7oVKStRZmZtF3NB7yAgA8AAACg4S3NLNiV9o5kl5rCH73n/e2Kb+tRYXlF+eyKajX2xof7Bay/JPSjAAAAANgQv/jfF5TvDCrU8vFb6P+e2Rbvyl/eUmdfQu3dcQVvc1u825GZXlA+t6rU7u323H6/MNsMPjP+qAa6UnfdDYHGQcAHAAAAsGH+63/+W9F4u0LhjQv4pWJJ01cmre8Z+tgL632U5cWsBkZ2qTXa6ox4Xy6T1VMnHlGqK0nA9xACPgAAAAAAHsAcfAAAAAAAPICADwAAAACABxDwAQAAAADwAAI+AAAAAAAeQMAHAAAAAMADCPgAAAAAAHgAAR8AAAAAAA8g4AMAAAAA4AEEfAAAAAAAPICADwAAAACABxDwAQAAAADwAAI+AAAAAAAeQMAHAAAAAMADCPgAAAAAAHgAAR8AAAAAAA8g4AMAAAAA4AEEfAAAAAAAPICADwAAAACABxDwAQAAAADwAAI+AAAAAAAeQMAHAAAAAMADCPgAAAAAAHgAAR8AAAAAAA8g4AMAAAAA4AEEfAAAAAAAPICADwAAAACABxDwAQAAAADwAAI+AAAAAACuJ/0/JJ08PTh1BscAAAAASUVORK5CYII=;" vertex="1" parent="1">
          <mxGeometry x="33.99647058823541" y="321.0041463694854" width="1016" height="822" as="geometry" />
        </mxCell>
      </root>
    </mxGraphModel>
  </diagram>
</mxfile>
